<svg width="30" height="28" viewBox="0 0 30 28" fill="none" xmlns="http://www.w3.org/2000/svg">
<path d="M29.4193 26.4538L21.7265 19.0913C23.5053 17.0086 24.4762 14.4011 24.4744 11.7112C24.4744 5.25343 18.9855 0 12.2375 0C5.48952 0 0 5.25283 0 11.7112C0 18.1684 5.48952 23.4218 12.2375 23.4218C15.3818 23.4218 18.2446 22.2706 20.415 20.3983L28.0806 27.7349C28.2656 27.9118 28.5085 28 28.7503 28C28.9374 27.9998 29.1202 27.9466 29.2758 27.8471C29.4313 27.7475 29.5525 27.6061 29.6241 27.4406C29.6957 27.2752 29.7144 27.0931 29.678 26.9175C29.6415 26.7419 29.5515 26.5805 29.4193 26.4538ZM1.26162 11.7106C1.26162 5.91902 6.18502 1.20736 12.2369 1.20736C18.2881 1.20736 23.2115 5.91902 23.2115 11.7106C23.2115 14.4883 22.0698 17.0105 20.2238 18.8913C20.2149 18.8986 20.2055 18.901 20.1966 18.9083C20.184 18.9209 20.1802 18.9373 20.1682 18.9493C18.1682 20.9552 15.3559 22.2126 12.2375 22.2126C6.18502 22.2132 1.26162 17.5016 1.26162 11.7106Z" fill="#303030"/>
</svg>
