<svg width="24" height="24" viewBox="0 0 24 24" fill="none" xmlns="http://www.w3.org/2000/svg">
<path d="M11.9921 23.9996C11.9116 23.9996 11.8323 23.98 11.7611 23.9426L0.269001 17.9425C0.187965 17.9003 0.120046 17.8367 0.0726217 17.7586C0.0251971 17.6805 8.04187e-05 17.5909 0 17.4995L0 6.24949C8.79107e-05 6.16436 0.0219088 6.08066 0.0633952 6.00633C0.104882 5.93199 0.16466 5.86948 0.237067 5.82472C0.309473 5.77995 0.39211 5.75441 0.477149 5.75052C0.562187 5.74663 0.646811 5.76452 0.723003 5.80248L12.2151 11.5525C12.298 11.5941 12.3677 11.6579 12.4165 11.7368C12.4652 11.8158 12.4911 11.9067 12.4911 11.9995V23.4996C12.4911 23.632 12.4385 23.759 12.345 23.8528C12.2514 23.9465 12.1245 23.9993 11.9921 23.9996ZM1 17.1965L11.4921 22.6746V12.3085L1 7.05849V17.1965Z" fill="#303030"/>
<path d="M12.0078 24.0001C11.9421 24.0002 11.877 23.9874 11.8163 23.9623C11.7556 23.9372 11.7004 23.9004 11.654 23.8539C11.6075 23.8075 11.5707 23.7523 11.5456 23.6916C11.5205 23.6308 11.5077 23.5658 11.5078 23.5001V12C11.5078 11.9072 11.5336 11.8163 11.5824 11.7373C11.6311 11.6584 11.7009 11.5946 11.7838 11.553L23.2759 5.80298C23.3521 5.76478 23.4368 5.74671 23.522 5.75049C23.6072 5.75427 23.69 5.77976 23.7625 5.82456C23.8351 5.86935 23.895 5.93195 23.9365 6.00641C23.9781 6.08087 23.9999 6.16472 23.9999 6.24999V17.5C23.9998 17.5914 23.9747 17.681 23.9272 17.7591C23.8798 17.8372 23.8119 17.9008 23.7309 17.943L12.2388 23.9431C12.1676 23.9805 12.0883 24.0001 12.0078 24.0001ZM12.5078 12.309V22.6751L22.9999 17.197V7.05899L12.5078 12.309Z" fill="#303030"/>
<path d="M0.499969 6.74953C0.387378 6.74952 0.278084 6.71151 0.189783 6.64166C0.101483 6.5718 0.0393438 6.47419 0.013427 6.36462C-0.0124898 6.25505 -0.000667422 6.13994 0.0469802 6.03793C0.0946278 5.93592 0.175311 5.85297 0.275968 5.80252L11.784 0.0524986C11.8535 0.0179694 11.93 0 12.0075 0C12.0851 0 12.1616 0.0179694 12.231 0.0524986L23.7231 5.80252C23.8418 5.8618 23.932 5.9658 23.974 6.09163C24.0161 6.21747 24.0063 6.35484 23.9471 6.47353C23.8878 6.59221 23.7838 6.68249 23.658 6.7245C23.5321 6.76651 23.3948 6.7568 23.2761 6.69753L12.008 1.0585L0.72397 6.69653C0.654467 6.73145 0.577751 6.7496 0.499969 6.74953Z" fill="#303030"/>
<path d="M18.0003 15.001C17.8677 15.001 17.7405 14.9483 17.6467 14.8545C17.553 14.7608 17.5003 14.6336 17.5003 14.501V9.30996L6.28425 3.69794C6.22548 3.66852 6.17308 3.62782 6.13005 3.57815C6.08701 3.52848 6.05418 3.47083 6.03342 3.40847C6.01267 3.34612 6.0044 3.28029 6.00909 3.21474C6.01378 3.14919 6.03133 3.0852 6.06074 3.02643C6.09016 2.96767 6.13086 2.91527 6.18053 2.87223C6.2302 2.8292 6.28785 2.79636 6.35021 2.77561C6.41256 2.75486 6.47839 2.74659 6.54395 2.75127C6.6095 2.75596 6.67348 2.77352 6.73225 2.80293L18.2243 8.55296C18.3072 8.59487 18.3768 8.65892 18.4256 8.73799C18.4743 8.81706 18.5001 8.90808 18.5003 9.00096V14.501C18.5003 14.6336 18.4476 14.7608 18.3539 14.8545C18.2601 14.9483 18.1329 15.001 18.0003 15.001Z" fill="#303030"/>
</svg>
