<svg width="108" height="24" viewBox="0 0 108 24" fill="none" xmlns="http://www.w3.org/2000/svg">
<g clip-path="url(#clip0_127_30)">
<path fill-rule="evenodd" clip-rule="evenodd" d="M21.481 12.0879C21.2355 12.0879 21.042 12.2964 21.0555 12.5416C21.1123 13.5789 21.1026 14.619 21.0264 15.6554C20.9209 16.6859 20.603 17.6834 20.0925 18.5847C19.582 19.4862 18.8902 20.2719 18.0607 20.8925C17.2311 21.513 16.282 21.9547 15.2731 22.1897C14.4233 22.3878 13.5466 22.4356 12.6825 22.3322C12.4301 22.302 12.1992 22.4931 12.1992 22.7473C12.1992 22.936 12.329 23.1013 12.5148 23.1346C13.4545 23.3025 14.422 23.248 15.3393 22.9735C16.2647 22.7712 17.1493 22.4143 17.956 21.9181C21.4983 19.6609 22.0825 16.6497 21.9008 12.4877C21.8909 12.2635 21.7054 12.0879 21.481 12.0879Z" fill="#434242"/>
<path fill-rule="evenodd" clip-rule="evenodd" d="M20.9883 11.1568H21.7559C21.7559 11.5318 21.6865 10.4416 21.6952 10.8516C21.704 11.2615 21.2766 12.5088 21.2591 12.1599C21.2417 11.811 20.997 11.5667 20.9883 11.1568Z" fill="#434242" fill-opacity="0.5"/>
<path fill-rule="evenodd" clip-rule="evenodd" d="M21.776 11.5032C21.5754 8.80795 21.2525 5.63298 20.3367 3.79254C19.5429 2.20505 18.3828 -0.56866 12.4865 0.102971C12.393 0.107227 12.3045 0.146269 12.2384 0.212437C12.1722 0.278598 12.1331 0.367114 12.1289 0.460593C12.1289 0.555439 12.1666 0.646398 12.2336 0.713464C12.3007 0.780533 12.3916 0.818214 12.4865 0.818214C18.976 0.504204 20.0402 3.25174 21.0084 12.1574C21.0084 12.4976 21.7934 12.4976 21.776 12.1574V11.5207V11.5032Z" fill="#434242"/>
<path fill-rule="evenodd" clip-rule="evenodd" d="M5.10006 12.8917C4.75116 19.5557 8.27503 22.4428 12.3746 23.1232C12.5665 23.1232 12.7671 22.8528 12.7671 22.6522C12.7671 22.4603 12.6014 22.3469 12.4095 22.3033C7.51619 21.213 5.71936 18.2735 5.88508 12.2376C5.88508 11.8974 5.12621 11.8974 5.1175 12.2376L5.10006 12.8917Z" fill="#434242"/>
<path fill-rule="evenodd" clip-rule="evenodd" d="M4.99008 0.816845C5.03429 0.71435 5.11401 0.631285 5.21468 0.582988C5.32458 0.563894 5.43779 0.585229 5.53322 0.64305C5.62865 0.700873 5.69999 0.791273 5.73401 0.897539C5.76802 1.00387 5.76245 1.11891 5.71832 1.2214C5.67419 1.32389 5.59436 1.40693 5.4938 1.45525C5.38382 1.47435 5.27069 1.45299 5.17518 1.39515C5.07975 1.33733 5.00838 1.24696 4.97437 1.14063C4.94035 1.03439 4.94595 0.919343 4.99008 0.816845ZM6.671 1.48133H8.00553C8.31743 1.48133 8.4208 1.48133 8.51003 1.44592C8.55424 1.42839 8.59499 1.40213 8.65596 1.36279C8.73342 1.3129 8.84357 1.24199 9.03479 1.14116C9.07743 1.14116 9.249 1.06387 9.41491 0.989124C9.5542 0.926322 9.68949 0.865266 9.74131 0.853316L10.2821 0.705068H10.5787C10.6697 0.678465 10.7632 0.660931 10.8578 0.652733H9.64535H6.59249C6.51818 0.697766 6.45806 0.762837 6.41908 0.840493C6.37999 0.918122 6.3637 1.00517 6.37189 1.0917C6.37999 1.17814 6.41244 1.26057 6.46539 1.32956C6.51826 1.39847 6.58952 1.45107 6.671 1.48133ZM6.7317 3.07756L7.37716 2.32741L7.44685 2.27508C7.49517 2.24411 7.53199 2.19814 7.55159 2.14424H6.57469C6.51754 2.14424 6.46068 2.14232 6.40442 2.14049C6.14318 2.13168 5.89625 2.12339 5.70244 2.30997C5.66206 2.35829 5.63179 2.4142 5.61346 2.47447C5.59508 2.53466 5.58896 2.5979 5.59549 2.66052C5.60197 2.72315 5.62096 2.78385 5.65134 2.83898C5.68169 2.89411 5.72276 2.9426 5.77221 2.9816C5.9247 3.1113 6.31059 3.09421 6.58593 3.08208C6.62546 3.08034 6.66278 3.07869 6.6968 3.07756H6.7317ZM5.46798 10.073C5.46798 10.1651 5.44521 10.2761 5.42473 10.3762C5.41417 10.4277 5.40413 10.4763 5.39821 10.5178C5.39305 10.6793 5.37255 10.8399 5.33715 10.9976H1.84819C1.48185 10.9976 1.21146 10.8231 1.25507 10.4742C1.29868 10.1253 1.70862 10.0643 1.9703 10.0643C2.39078 10.0675 2.8405 10.0635 3.29304 10.0594C4.05154 10.0526 4.81791 10.0457 5.46798 10.073ZM5.68089 8.64204C5.70768 8.6124 5.72896 8.58884 5.72896 8.49421V8.48547H3.25177C3.14187 8.46637 3.02866 8.48776 2.93323 8.54559C2.83777 8.60342 2.76646 8.69378 2.73244 8.80009C2.69842 8.90633 2.70401 9.02139 2.74817 9.12387C2.79232 9.22636 2.87209 9.3095 2.97265 9.35774C3.76142 9.42855 4.55403 9.44608 5.34517 9.41006C5.39035 9.32973 5.42114 9.2378 5.45246 9.1443C5.47547 9.07539 5.49877 9.00568 5.52834 8.93905L5.5894 8.82565C5.6112 8.80384 5.6112 8.79949 5.6112 8.78857C5.6112 8.77768 5.6112 8.76024 5.63301 8.71227C5.6488 8.67754 5.66573 8.6588 5.68089 8.64204ZM0.922405 9.40143C0.837284 9.38277 0.759129 9.34054 0.697 9.27948C0.63486 9.21834 0.591257 9.14097 0.571195 9.0562C0.551142 8.97141 0.55547 8.88271 0.583649 8.80018C0.611843 8.71776 0.662745 8.64501 0.730511 8.59024C0.902169 8.49203 1.10208 8.45512 1.29746 8.48558C1.51517 8.46777 1.73395 8.46777 1.95165 8.48558C2.03276 8.51025 2.10568 8.55639 2.16274 8.6191C2.2198 8.68181 2.2589 8.75875 2.27587 8.8418C2.29284 8.92491 2.28707 9.011 2.25918 9.09107C2.23128 9.17115 2.1823 9.24216 2.11738 9.29676C1.97764 9.39969 1.8441 9.39724 1.66448 9.39393C1.63122 9.39332 1.59587 9.39269 1.55913 9.39269C1.34749 9.41312 1.13453 9.41609 0.922405 9.40143ZM5.93873 6.94168C5.93184 7.10261 5.91431 7.26285 5.88639 7.42143L5.87768 7.43014C5.21826 7.45988 4.2109 7.44908 3.28554 7.43921C2.85216 7.4346 2.43668 7.43014 2.08339 7.43014C1.89561 7.45194 1.70582 7.41217 1.54261 7.31676C1.47888 7.26555 1.43051 7.19768 1.4028 7.12075C1.37511 7.04384 1.36917 6.96079 1.38561 6.88063C1.45469 6.47382 1.8548 6.48576 2.14597 6.49458C2.18564 6.49571 2.22335 6.49684 2.25786 6.49684C2.6272 6.49684 3.04208 6.49232 3.46956 6.48761C4.3646 6.47774 5.31482 6.46737 6.01724 6.49684C6.00966 6.56539 5.9937 6.63229 5.97815 6.69746C5.95811 6.78164 5.93873 6.8631 5.93873 6.94168ZM6.19178 5.84258C6.2135 5.79922 6.24297 5.72273 6.27891 5.62923C6.34416 5.45973 6.43085 5.23436 6.53204 5.04882C6.53946 5.00557 6.53946 4.96133 6.53204 4.91808H3.91529C3.09539 4.91808 3.20006 5.65076 3.55766 5.79032C3.71153 5.85625 5.23185 5.84214 5.90044 5.83594C6.02771 5.83481 6.12416 5.83384 6.17441 5.83384L6.19178 5.84258ZM2.19438 5.18124C2.24113 5.07517 2.32598 4.99066 2.43213 4.94424C2.49078 4.9186 2.5541 4.90534 2.6181 4.90542C2.68209 4.90559 2.74537 4.91896 2.80392 4.94476C2.86247 4.97059 2.91504 5.00835 2.95826 5.05554C3.00145 5.10274 3.03442 5.15839 3.05509 5.21892C3.07566 5.27954 3.08343 5.34374 3.07794 5.4075C3.07243 5.47125 3.05377 5.53319 3.02306 5.58937C2.99238 5.64552 2.9504 5.69472 2.89971 5.73381C2.84904 5.77287 2.7908 5.80104 2.7287 5.81648C2.61625 5.84432 2.49745 5.82905 2.39577 5.77348C2.29409 5.71793 2.21698 5.62625 2.17968 5.5166C2.14239 5.40689 2.14761 5.2872 2.19438 5.18124ZM0.346634 6.51421C0.257343 6.53731 0.176974 6.58651 0.115899 6.65567C0.0548242 6.72475 0.0158175 6.8105 0.0038852 6.90199C-0.00804715 6.99342 0.00765296 7.0864 0.0489539 7.16882C0.0902547 7.25124 0.155281 7.31946 0.235659 7.36473C0.316036 7.40991 0.408093 7.43006 0.500011 7.42256C0.591927 7.41506 0.679493 7.38016 0.751455 7.32252C0.823413 7.26478 0.876482 7.18688 0.903818 7.09886C0.931154 7.01076 0.931501 6.91649 0.904854 6.8282C0.872311 6.71265 0.795302 6.61468 0.690657 6.5558C0.586014 6.497 0.462294 6.48201 0.346634 6.51421ZM4.77595 3.73181C4.82113 3.62776 4.90295 3.54393 5.00587 3.4963C5.11699 3.47328 5.23265 3.49194 5.33087 3.54873C5.42908 3.60543 5.50304 3.69639 5.53862 3.80412C5.57413 3.91184 5.56889 4.02891 5.52371 4.13297C5.47853 4.23703 5.39672 4.32085 5.29371 4.36857C5.18259 4.3915 5.06693 4.37284 4.96872 4.31614C4.8705 4.25935 4.7966 4.16847 4.76101 4.06075C4.72543 3.95294 4.73075 3.83595 4.77595 3.73181Z" fill="#434242"/>
<path fill-rule="evenodd" clip-rule="evenodd" d="M13.5747 4.23828C13.3002 4.2648 13.0462 4.3951 12.8647 4.60261C12.6831 4.81012 12.5877 5.07921 12.5978 5.35475V7.52666C12.5736 7.79845 12.6583 8.06875 12.8333 8.27808C13.0083 8.48752 13.2593 8.61879 13.5311 8.64313C13.8057 8.6187 14.06 8.48865 14.2406 8.28037C14.4212 8.07214 14.514 7.80192 14.4993 7.52666L14.5429 5.35475C14.5672 5.08296 14.4825 4.81265 14.3074 4.60333C14.1324 4.39397 13.8814 4.2627 13.6096 4.23828H13.5747ZM13.5747 4.87503C13.4235 4.8862 13.2828 4.95657 13.1832 5.07094C13.0835 5.18528 13.033 5.33427 13.0426 5.4856V7.4307C13.0355 7.50477 13.0432 7.5795 13.0653 7.65051C13.0874 7.7216 13.1235 7.78745 13.1715 7.84432C13.2194 7.90118 13.2782 7.94793 13.3444 7.98178C13.4107 8.01555 13.483 8.03587 13.5573 8.04127C13.7085 8.03011 13.8492 7.95973 13.9488 7.84537C14.0484 7.73103 14.0989 7.58204 14.0893 7.4307V5.4856C14.0965 5.41016 14.0883 5.33408 14.0651 5.26194C14.0419 5.18983 14.0042 5.12318 13.9545 5.06603C13.9047 5.00892 13.8438 4.9625 13.7755 4.92972C13.7072 4.89684 13.633 4.87826 13.5573 4.87503H13.5747Z" fill="#434242"/>
<path d="M34.0489 5.00636L34.1013 4.93656C34.1454 4.87655 34.1835 4.81227 34.2146 4.74468C34.2504 4.66477 34.2711 4.57904 34.2758 4.49172C34.2761 4.41172 34.2601 4.33253 34.2284 4.25901C34.197 4.18547 34.1507 4.11918 34.0925 4.06432C34.0412 4.00613 33.9781 3.95974 33.9075 3.92815C33.8367 3.89651 33.7601 3.88055 33.6826 3.88115C33.5867 3.88394 33.4924 3.90626 33.4053 3.94684C33.3185 3.98731 33.2407 4.04505 33.1768 4.11667L30.2982 6.88169V4.53533C30.3017 4.36029 30.2361 4.19098 30.1151 4.06432C30.0561 4.00415 29.9856 3.95676 29.9076 3.92528C29.8296 3.8938 29.7458 3.8787 29.6614 3.88115C29.576 3.87853 29.4911 3.89353 29.4117 3.92504C29.332 3.95652 29.2598 4.00387 29.1991 4.06432C29.0784 4.19098 29.0125 4.36029 29.0161 4.53533V9.88221C29.0128 9.96829 29.0263 10.0542 29.0564 10.1351C29.0864 10.2159 29.1319 10.2901 29.1906 10.3532C29.3191 10.4709 29.4872 10.5361 29.6614 10.5361C29.8359 10.5361 30.0038 10.4709 30.1325 10.3532C30.1901 10.2896 30.2342 10.2152 30.2629 10.1344C30.2913 10.0535 30.3034 9.96777 30.2982 9.88221V8.52151L31.3451 7.53587L33.4993 10.3096L33.5517 10.362C33.6029 10.4096 33.6619 10.448 33.7262 10.4753C33.8102 10.517 33.9028 10.538 33.9966 10.5364C34.0776 10.5414 34.1589 10.5283 34.2342 10.4981C34.3097 10.4679 34.3775 10.4214 34.4327 10.362C34.5368 10.2441 34.5928 10.0916 34.5898 9.93455C34.5837 9.76131 34.5192 9.59534 34.4065 9.46352L32.2608 6.6985L34.0054 5.00636H34.0489Z" fill="#434242"/>
<path d="M36.6084 9.27164V4.53533C36.6119 4.36029 36.5461 4.19098 36.4251 4.06432C36.3663 4.00415 36.2958 3.95676 36.2175 3.92528C36.1395 3.8938 36.0557 3.8787 35.9716 3.88115C35.8862 3.87853 35.801 3.89353 35.7216 3.92504C35.6419 3.95652 35.5697 4.00387 35.5093 4.06432C35.3886 4.19098 35.3227 4.36029 35.3263 4.53533V9.82115C35.3227 9.99614 35.3886 10.1654 35.5093 10.2922C35.5697 10.3525 35.6419 10.3999 35.7216 10.4315C35.801 10.4629 35.8862 10.4779 35.9716 10.4753H39.6265C39.7039 10.476 39.7806 10.4599 39.8514 10.4283C39.922 10.3967 39.9851 10.3503 40.0364 10.2922C40.0945 10.2372 40.1408 10.1709 40.1723 10.0974C40.2037 10.0239 40.2197 9.94475 40.2194 9.86476C40.2194 9.78488 40.2031 9.70576 40.1714 9.6323C40.14 9.55887 40.094 9.49258 40.0364 9.43736C39.9851 9.37917 39.922 9.33278 39.8514 9.30122C39.7806 9.26955 39.7039 9.25359 39.6265 9.25419L36.6084 9.27164Z" fill="#434242"/>
<path d="M43.4592 3.71215C43.2445 3.70082 43.0334 3.76918 42.866 3.90403C42.7064 4.02424 42.5805 4.18343 42.4997 4.36632L40.3976 9.43408V9.49514C40.3766 9.55212 40.359 9.61036 40.3452 9.6696C40.3381 9.73038 40.3381 9.79188 40.3452 9.85277C40.3422 9.93905 40.3579 10.0251 40.391 10.1048C40.4241 10.1846 40.4739 10.2563 40.5371 10.3151C40.5941 10.3781 40.6644 10.4279 40.7427 10.4611C40.821 10.4942 40.9059 10.5099 40.9908 10.5069C41.1501 10.503 41.3037 10.446 41.4269 10.3449C41.5501 10.2437 41.6361 10.1042 41.6711 9.94872L42.081 8.86712H44.9158L45.326 9.94872C45.3626 10.1049 45.45 10.2446 45.5749 10.3457C45.6995 10.4468 45.8544 10.5035 46.0148 10.5069C46.0997 10.5082 46.1838 10.4918 46.2621 10.4587C46.3401 10.4257 46.4104 10.3768 46.4685 10.3151C46.5289 10.2545 46.5763 10.1823 46.6077 10.1028C46.6392 10.0233 46.654 9.93825 46.6516 9.85277C46.6488 9.70902 46.6193 9.56703 46.5645 9.43408L44.4623 4.36632C44.3818 4.18343 44.2556 4.02424 44.096 3.90403C43.9262 3.77398 43.7167 3.70622 43.5028 3.71215H43.4592ZM43.4592 5.25602H43.5116L44.445 7.64599H42.5259L43.4592 5.25602Z" fill="#434242"/>
<path d="M46.7895 3.92213C46.7051 3.91968 46.6213 3.93476 46.5433 3.96626C46.4653 3.99783 46.3947 4.0451 46.3357 4.1053C46.2767 4.15955 46.2299 4.22565 46.1982 4.29936C46.1668 4.37299 46.1511 4.45254 46.1524 4.5327C46.1511 4.61407 46.1665 4.69503 46.1979 4.77012C46.2296 4.84523 46.2765 4.9129 46.3357 4.96881C46.4579 5.08466 46.621 5.14737 46.7895 5.14327H48.3419V9.87958C48.3386 9.96567 48.3521 10.0517 48.3822 10.1324C48.4119 10.2133 48.4577 10.2874 48.5164 10.3506C48.5771 10.4129 48.6509 10.4615 48.732 10.4932C48.8133 10.5248 48.9004 10.5386 48.9872 10.5338C49.0729 10.5379 49.1587 10.5237 49.2383 10.4922C49.318 10.4605 49.3902 10.4122 49.4495 10.3506C49.5082 10.2874 49.554 10.2133 49.5837 10.1324C49.6138 10.0517 49.6276 9.96567 49.6243 9.87958V5.14327H51.1767C51.3449 5.14737 51.508 5.08466 51.6302 4.96881C51.6894 4.9129 51.7366 4.84523 51.768 4.77012C51.7994 4.69503 51.8148 4.61407 51.8135 4.5327C51.8148 4.45254 51.7991 4.37299 51.7677 4.29936C51.736 4.22565 51.6892 4.15955 51.6302 4.1053C51.5714 4.0451 51.5006 3.99783 51.4226 3.96626C51.3446 3.93476 51.2608 3.91968 51.1767 3.92213H46.7895Z" fill="#434242"/>
<path d="M55.0232 9.46083C54.5979 9.47662 54.1839 9.32295 53.8719 9.03343C53.7269 8.89563 53.6122 8.72895 53.5356 8.54421C53.4589 8.35935 53.422 8.16058 53.427 7.96057V6.46031C53.4203 6.26005 53.4564 6.06073 53.5334 5.87574C53.61 5.69064 53.7255 5.5242 53.8719 5.38745C54.0251 5.24249 54.2062 5.12986 54.4041 5.05651C54.6018 4.98307 54.8124 4.95027 55.0232 4.96006C55.2388 4.95474 55.4538 4.98412 55.66 5.04727C55.7962 5.09298 55.9255 5.15753 56.0437 5.23915C56.1526 5.32394 56.2549 5.41736 56.3491 5.51828C56.4128 5.58981 56.4908 5.64764 56.5776 5.68811C56.6647 5.72857 56.759 5.7509 56.8549 5.75379C56.9324 5.7544 57.009 5.73836 57.0799 5.70677C57.1504 5.67512 57.2136 5.6287 57.2648 5.57062C57.323 5.51566 57.3693 5.44936 57.4007 5.37593C57.4322 5.30239 57.4484 5.22319 57.4481 5.14323C57.4481 4.83794 57.2213 4.52392 56.7678 4.2099C56.2482 3.87793 55.6393 3.71343 55.0232 3.7389C54.6437 3.72555 54.2655 3.7881 53.9104 3.92295C53.5554 4.05771 53.231 4.26208 52.9559 4.52392C52.6943 4.77322 52.4873 5.07387 52.3478 5.40716C52.208 5.74045 52.1388 6.09902 52.1449 6.46031V7.96057C52.1402 8.32038 52.21 8.67729 52.3494 9.00893C52.4889 9.34064 52.6954 9.64 52.9559 9.88825C53.2304 10.1512 53.5546 10.3569 53.9096 10.4932C54.2647 10.6295 54.6431 10.6937 55.0232 10.682C55.6716 10.6997 56.3081 10.5068 56.8376 10.1325C57.3346 9.77485 57.5788 9.43467 57.5788 9.12939C57.5805 9.05 57.5656 8.97116 57.5355 8.89773C57.5055 8.82418 57.4611 8.75764 57.4043 8.70199C57.3514 8.64363 57.2869 8.59713 57.2147 8.56557C57.1425 8.53398 57.0644 8.51802 56.9859 8.51882C56.8911 8.52072 56.7976 8.54272 56.7119 8.58327C56.6262 8.62392 56.5501 8.6822 56.4886 8.75431L56.1485 9.07704C56.0106 9.18347 55.8576 9.26878 55.6947 9.33C55.4817 9.4175 55.2534 9.46199 55.0232 9.46083Z" fill="#434242"/>
<path d="M62.9728 5.14339C63.0502 5.14399 63.1269 5.12795 63.1977 5.09636C63.2683 5.06469 63.3314 5.0183 63.3827 4.96022C63.4408 4.90525 63.4871 4.83896 63.5186 4.76553C63.5503 4.69198 63.5663 4.61279 63.566 4.53279C63.5657 4.45291 63.5494 4.3738 63.518 4.30037C63.4863 4.2269 63.4406 4.16061 63.3827 4.1054C63.3314 4.04723 63.2683 4.00082 63.1977 3.96925C63.1269 3.93766 63.0502 3.92162 62.9728 3.92223H59.0825C58.9976 3.91928 58.913 3.93488 58.8347 3.96801C58.7562 4.00117 58.6861 4.05107 58.6291 4.11414C58.5679 4.17596 58.5202 4.24967 58.4888 4.33063C58.4571 4.41165 58.4425 4.49826 58.4458 4.58514V9.81862C58.4422 9.9936 58.5081 10.163 58.6291 10.2897C58.6878 10.3497 58.7586 10.3971 58.8366 10.4286C58.9147 10.4602 58.9984 10.4752 59.0825 10.4728H63.0337C63.1125 10.4725 63.1903 10.4561 63.2622 10.4245C63.3342 10.393 63.3989 10.3471 63.4524 10.2897C63.5643 10.1754 63.6269 10.022 63.6269 9.86223C63.6261 9.70263 63.5635 9.54945 63.4524 9.43483C63.3989 9.37736 63.3342 9.33138 63.2622 9.2999C63.1903 9.26842 63.1125 9.25202 63.0337 9.25166H59.7019V7.7514H62.1615C62.2343 7.75507 62.3074 7.74294 62.3749 7.71582C62.4427 7.68878 62.5039 7.64726 62.5541 7.59439C62.6059 7.54152 62.6467 7.47873 62.6737 7.40973C62.7004 7.34082 62.7134 7.26711 62.7112 7.19316C62.7151 7.04113 62.6585 6.89372 62.5541 6.78321C62.5039 6.73026 62.4427 6.68882 62.3749 6.6617C62.3074 6.63458 62.2343 6.62245 62.1615 6.6262H59.7455V5.12594L62.9728 5.14339Z" fill="#434242"/>
<path d="M68.7335 8.14669L65.759 4.21285C65.6909 4.10705 65.5963 4.02077 65.4847 3.96269C65.3731 3.9045 65.2482 3.87652 65.1222 3.8814C65.0368 3.87887 64.9516 3.89378 64.8722 3.92526C64.7928 3.95677 64.7206 4.00421 64.6599 4.06457C64.5453 4.19446 64.4833 4.36236 64.4855 4.53558V9.88246C64.4805 9.96802 64.4926 10.0538 64.521 10.1346C64.5494 10.2155 64.5938 10.2899 64.6514 10.3535C64.7799 10.4711 64.948 10.5364 65.1222 10.5364C65.2967 10.5364 65.4646 10.4711 65.5933 10.3535C65.6509 10.2899 65.695 10.2155 65.7237 10.1346C65.7521 10.0538 65.7639 9.96802 65.759 9.88246V6.27135H65.8028L68.7771 10.2139C68.8479 10.3164 68.9433 10.3995 69.0544 10.4559C69.1657 10.5122 69.2892 10.54 69.4138 10.5366C69.4998 10.5391 69.5855 10.5238 69.6658 10.4917C69.7457 10.4596 69.8182 10.4113 69.8788 10.35C69.9395 10.2886 69.9866 10.2154 70.0175 10.135C70.0486 10.0545 70.0627 9.96863 70.0591 9.88246V4.53558C70.0641 4.36192 70.0018 4.19314 69.8849 4.06457C69.7562 3.9469 69.588 3.88157 69.4138 3.88157C69.2393 3.88157 69.0712 3.9469 68.9427 4.06457C68.8283 4.19394 68.7688 4.36297 68.7771 4.53558V8.14669H68.7335Z" fill="#434242"/>
<path d="M74.7174 10.0207H76.5926C76.8898 10.0344 77.1864 9.98815 77.4651 9.8847C77.7438 9.78133 77.999 9.62286 78.2151 9.41883C78.4197 9.21699 78.5795 8.97461 78.6848 8.70718C78.7899 8.43974 78.8378 8.15329 78.8257 7.86625V6.54913C78.8373 6.26218 78.789 5.97581 78.684 5.70857C78.5787 5.44121 78.4191 5.19872 78.2151 4.99653C77.999 4.79252 77.7438 4.63413 77.4651 4.53068C77.1864 4.42731 76.8898 4.38109 76.5926 4.3947H74.7174V10.0207ZM74.4905 3.91496H76.5926C76.9513 3.89655 77.3096 3.95212 77.6459 4.07815C77.9819 4.2042 78.2885 4.39801 78.5465 4.64764C78.7951 4.89404 78.9897 5.18974 79.1173 5.51572C79.245 5.84168 79.3031 6.19073 79.288 6.54042V7.85751C79.3026 8.2085 79.2444 8.55879 79.1168 8.88608C78.9892 9.21341 78.7951 9.51059 78.5465 9.75901C78.2857 10.0041 77.9786 10.1945 77.6429 10.3188C77.3074 10.4432 76.9502 10.499 76.5926 10.483H74.4905C74.3337 10.483 74.2637 10.4045 74.2637 10.2475V4.14174C74.2637 3.98473 74.3337 3.90625 74.4905 3.90625V3.91496Z" fill="#434242"/>
<path d="M81.43 4.11725V10.3102C81.4344 10.341 81.4317 10.3724 81.4217 10.402C81.4118 10.4315 81.3953 10.4582 81.3732 10.4802C81.3512 10.5023 81.3244 10.5188 81.2949 10.5287C81.2654 10.5386 81.234 10.5414 81.2031 10.537C81.0463 10.537 80.9766 10.4672 80.9766 10.3102V4.11725C80.9766 3.96024 81.0463 3.88174 81.2031 3.88174C81.2346 3.87887 81.266 3.88303 81.2955 3.89403C81.325 3.90495 81.3514 3.9224 81.3732 3.94497C81.395 3.96766 81.4115 3.99487 81.4212 4.02469C81.4311 4.05443 81.4341 4.08611 81.43 4.11725Z" fill="#434242"/>
<path d="M85.819 10.6923C85.4606 10.7076 85.1031 10.6507 84.7671 10.5248C84.4313 10.3989 84.1251 10.2067 83.8652 9.9596C83.6149 9.71518 83.4169 9.42177 83.2852 9.09755C83.1526 8.77342 83.0889 8.42549 83.0978 8.07552V6.33104C83.0837 5.98143 83.1421 5.6327 83.2695 5.30694C83.3977 4.98115 83.5914 4.68538 83.839 4.43825C84.0989 4.19124 84.4052 3.999 84.7409 3.87314C85.0769 3.74717 85.4344 3.69022 85.7931 3.70557C86.3807 3.68788 86.9582 3.85908 87.4415 4.19403C87.8952 4.51676 88.1218 4.80459 88.1218 5.06627C88.1253 5.09742 88.1226 5.12909 88.1132 5.15892C88.1027 5.18874 88.087 5.21595 88.0653 5.23855C88.0435 5.26113 88.0162 5.27858 87.9875 5.28957C87.9577 5.30049 87.9263 5.30468 87.8952 5.30179C87.8662 5.30424 87.8384 5.30082 87.8114 5.29183C87.7844 5.28285 87.759 5.26838 87.7381 5.24944C87.676 5.17565 87.6212 5.09689 87.5724 5.01395C87.4004 4.78081 87.1799 4.58741 86.9268 4.44699C86.5814 4.25351 86.1889 4.15993 85.7931 4.17658C85.4973 4.16412 85.2023 4.21095 84.925 4.31432C84.6477 4.41769 84.3947 4.57556 84.1794 4.77843C83.9707 4.97845 83.8078 5.22014 83.6995 5.48774C83.5914 5.75526 83.5407 6.04268 83.5512 6.33104V8.07552C83.5407 8.36399 83.5914 8.65138 83.6995 8.9189C83.8078 9.1865 83.9707 9.42822 84.1794 9.62813C84.3922 9.83434 84.6458 9.99482 84.9234 10.0998C85.2007 10.2048 85.4965 10.2521 85.7931 10.2387C86.0111 10.236 86.2272 10.2068 86.4384 10.1515C86.6269 10.1026 86.8091 10.0293 86.9792 9.93341C87.1162 9.8632 87.2479 9.78147 87.3717 9.68918C87.4641 9.62909 87.5514 9.56202 87.6333 9.48856L87.7119 9.39264V7.42135H85.8802C85.8173 7.42135 85.7581 7.39657 85.7137 7.35244C85.669 7.30822 85.6448 7.24829 85.6448 7.18583C85.6448 7.1234 85.669 7.06355 85.7137 7.01934C85.7581 6.97521 85.8173 6.95034 85.8802 6.95034H87.9387C88.0956 6.95034 88.1656 7.02885 88.1656 7.18583V9.5322C88.1411 9.57911 88.1121 9.623 88.0782 9.66302C87.9963 9.76358 87.9056 9.85691 87.8078 9.94215C87.493 10.2513 87.1013 10.4711 86.674 10.5789C86.3912 10.6654 86.0974 10.7094 85.8016 10.7097L85.819 10.6923Z" fill="#434242"/>
<path d="M90.3452 4.11828V10.3112C90.3452 10.4682 90.2666 10.538 90.1095 10.538C90.0792 10.5424 90.0478 10.5395 90.018 10.5296C89.9885 10.5198 89.9615 10.5032 89.9395 10.4812C89.9177 10.4592 89.9011 10.4324 89.8915 10.4029C89.881 10.3734 89.8785 10.342 89.8829 10.3112V4.11828C89.8785 4.08713 89.8821 4.05549 89.8915 4.02564C89.9011 3.99581 89.9177 3.9686 89.9395 3.946C89.9615 3.92342 89.9885 3.90598 90.0172 3.89498C90.047 3.88409 90.0784 3.8799 90.1095 3.88277C90.1421 3.87841 90.1743 3.88155 90.2046 3.89183C90.2352 3.90214 90.2631 3.9194 90.2859 3.94217C90.3085 3.96494 90.3259 3.99267 90.3364 4.02329C90.346 4.05383 90.3496 4.08636 90.3452 4.11828Z" fill="#434242"/>
<path d="M93.8602 4.39291H91.671C91.6081 4.39291 91.5488 4.36813 91.5045 4.32391C91.4598 4.27975 91.4355 4.21985 91.4355 4.15739C91.4355 4.09493 91.4598 4.035 91.5045 3.99087C91.5488 3.94674 91.6081 3.92188 91.671 3.92188H96.5119C96.5748 3.92188 96.634 3.94674 96.6784 3.99087C96.7231 4.035 96.7473 4.09493 96.7473 4.15739C96.7473 4.21985 96.7231 4.27975 96.6784 4.32391C96.634 4.36813 96.5748 4.39291 96.5119 4.39291H94.3139V10.3067C94.3139 10.4637 94.2442 10.5335 94.087 10.5335C94.0564 10.5379 94.025 10.5351 93.9955 10.5252C93.9657 10.5154 93.9387 10.4988 93.917 10.4767C93.8952 10.4547 93.8786 10.428 93.869 10.3985C93.8585 10.3689 93.856 10.3375 93.8602 10.3067V4.39291Z" fill="#434242"/>
<path d="M99.0687 3.97404C99.088 3.90714 99.1288 3.84834 99.1847 3.80655C99.2407 3.76476 99.3085 3.74219 99.3782 3.74219C99.4483 3.74219 99.5161 3.76476 99.572 3.80655C99.6277 3.84834 99.668 3.90714 99.6881 3.97404L102.305 10.0274C102.354 10.1132 102.383 10.2083 102.392 10.3065C102.395 10.3512 102.384 10.3958 102.361 10.4342C102.338 10.4725 102.304 10.5028 102.263 10.5209C102.222 10.539 102.176 10.5441 102.132 10.5353C102.088 10.5266 102.047 10.5046 102.017 10.4723C101.98 10.4412 101.95 10.4026 101.93 10.3589V10.3065L101.188 8.56205H97.6295L96.888 10.3065C96.8271 10.4635 96.7397 10.5333 96.6176 10.5333C96.5873 10.5352 96.5567 10.5308 96.5288 10.5203C96.4999 10.5098 96.4737 10.4934 96.4519 10.4723C96.431 10.4501 96.4153 10.424 96.4048 10.3956C96.3943 10.3671 96.3891 10.3368 96.391 10.3065L96.4781 10.0187L99.0949 3.97404H99.0687ZM99.3741 4.43633L97.8214 8.09976H100.962L99.4088 4.43633H99.3741Z" fill="#434242"/>
<path d="M107.756 10.4927H103.736C103.704 10.4971 103.671 10.4939 103.64 10.4837C103.61 10.4733 103.583 10.4561 103.559 10.4333C103.537 10.4105 103.52 10.3827 103.51 10.3522C103.499 10.3217 103.495 10.2891 103.5 10.2572V4.15149C103.495 4.11956 103.499 4.08701 103.51 4.0565C103.52 4.02595 103.537 3.99822 103.559 3.97537C103.583 3.9526 103.61 3.93535 103.64 3.92504C103.671 3.91476 103.704 3.91161 103.736 3.91597C103.767 3.9131 103.798 3.91729 103.828 3.92818C103.858 3.93918 103.884 3.95663 103.906 3.9792C103.927 4.00181 103.944 4.0291 103.954 4.05884C103.964 4.08866 103.967 4.12034 103.962 4.15149V10.0566H107.756C107.819 10.0566 107.879 10.0814 107.923 10.1256C107.968 10.1697 107.992 10.2296 107.992 10.2921C107.992 10.3545 107.968 10.4145 107.923 10.4586C107.879 10.5028 107.819 10.5276 107.756 10.5276V10.4927Z" fill="#434242"/>
<path fill-rule="evenodd" clip-rule="evenodd" d="M29.305 15.0123C29.2137 15.0123 29.168 15.0545 29.168 15.1388V17.1138C29.168 17.1981 29.2137 17.2405 29.305 17.2405C29.3965 17.2405 29.442 17.1981 29.442 17.1138V15.2493H30.8282V17.1138C30.8282 17.1981 30.874 17.2405 30.9652 17.2405C31.0565 17.2405 31.1019 17.1981 31.1019 17.1138V15.1388C31.1019 15.0545 31.0565 15.0123 30.9652 15.0123H29.305ZM31.9231 15.0123C31.8319 15.0123 31.7861 15.0545 31.7861 15.1388V17.1232C31.7861 17.2013 31.8319 17.2405 31.9231 17.2405C32.0143 17.2405 32.0601 17.2013 32.0601 17.1232V16.4661H32.6933C33.0014 16.4661 33.241 16.3981 33.4122 16.2622C33.5831 16.1264 33.6685 15.9519 33.6685 15.7389C33.6685 15.5263 33.5831 15.352 33.4122 15.2162C33.241 15.0803 33.0014 15.0123 32.6933 15.0123H31.9231ZM32.6933 15.2493C32.9168 15.2493 33.0869 15.2943 33.2035 15.3835C33.3195 15.4733 33.3777 15.5916 33.3777 15.7389C33.3777 15.8867 33.3195 16.0051 33.2035 16.0948C33.0869 16.1843 32.9168 16.2288 32.6933 16.2288H32.0601V15.2493H32.6933ZM35.0206 17.0509C34.7995 17.0509 34.6187 16.988 34.4781 16.8626C34.3378 16.7371 34.2678 16.5786 34.2678 16.387V15.8496C34.2678 15.6582 34.3378 15.4995 34.4781 15.3742C34.6187 15.2489 34.7995 15.1859 35.0206 15.1859C35.2422 15.1859 35.4228 15.2489 35.5631 15.3742C35.7031 15.4995 35.7731 15.6582 35.7731 15.8496V16.387C35.7731 16.5786 35.7031 16.7371 35.5631 16.8626C35.4228 16.988 35.2422 17.0509 35.0206 17.0509ZM35.0206 17.2878C35.3263 17.2878 35.5741 17.2035 35.7632 17.0349C35.9526 16.8663 36.0471 16.6505 36.0471 16.387V15.8496C36.0471 15.5865 35.9526 15.3703 35.7632 15.2019C35.5741 15.0335 35.3263 14.9492 35.0206 14.9492C34.7149 14.9492 34.4674 15.0335 34.278 15.2019C34.0883 15.3703 33.9938 15.5865 33.9938 15.8496V16.387C33.9938 16.6505 34.0883 16.8663 34.278 17.0349C34.4674 17.2035 34.7149 17.2878 35.0206 17.2878ZM38.4941 17.2245V17.6037C38.4941 17.6878 38.5395 17.7301 38.6311 17.7301C38.7223 17.7301 38.7681 17.6878 38.7681 17.6037V17.1138C38.7681 17.0295 38.7223 16.9875 38.6311 16.9875H38.4431V15.1388C38.4431 15.0545 38.397 15.0123 38.3058 15.0123H36.8859C36.7944 15.0123 36.7486 15.0545 36.7486 15.1388V16.2288C36.7486 16.332 36.7351 16.4292 36.7078 16.5199C36.6803 16.6104 36.6502 16.6821 36.6169 16.7346C36.5841 16.7872 36.5458 16.8359 36.5025 16.8801C36.4592 16.9242 36.4286 16.9516 36.4118 16.9622C36.3944 16.9726 36.3815 16.9811 36.3724 16.9875H36.3379C36.247 16.9875 36.2012 17.0295 36.2012 17.1138V17.6037C36.2012 17.6878 36.247 17.7301 36.3379 17.7301C36.4292 17.7301 36.4749 17.6878 36.4749 17.6037V17.2245H38.4941ZM36.6803 16.9716L36.7145 16.9494C36.7398 16.9348 36.7688 16.908 36.8021 16.869C36.8349 16.83 36.8683 16.7837 36.9014 16.7299C36.9342 16.6762 36.9628 16.6051 36.9868 16.5167C37.0108 16.4281 37.0224 16.332 37.0224 16.2288V15.2493H38.1691V16.9875H36.6803V16.9716ZM39.2301 15.1072L39.2163 15.0789C39.2047 15.0598 39.1862 15.0412 39.16 15.0234C39.1336 15.0054 39.1055 14.9965 39.076 14.9965C39.0418 14.9965 39.0131 15.0081 38.9902 15.0313C38.9676 15.0545 38.9561 15.0851 38.9561 15.1228C38.9561 15.1543 38.9676 15.1913 38.9902 15.2334L39.9142 16.7189C39.8439 16.8347 39.7747 16.9188 39.7075 16.9716C39.6402 17.0243 39.5608 17.0509 39.4696 17.0509C39.415 17.0509 39.3602 17.0322 39.3053 16.9953C39.2502 16.9584 39.2083 16.94 39.1785 16.94C39.149 16.94 39.1245 16.9499 39.1052 16.97C39.0856 16.99 39.076 17.0139 39.076 17.0411C39.076 17.0918 39.1143 17.1427 39.1906 17.1944C39.267 17.2462 39.3602 17.2721 39.4696 17.2721C39.6336 17.2721 39.7753 17.2254 39.8941 17.1328C40.0123 17.0401 40.1221 16.9021 40.2221 16.7189L41.0438 15.2334L41.0507 15.2144C41.0573 15.2041 41.0637 15.1898 41.0695 15.1718C41.0753 15.154 41.078 15.1378 41.078 15.1228C41.078 15.0851 41.0667 15.0545 41.0438 15.0313C41.021 15.0081 40.9923 14.9965 40.9584 14.9965C40.8897 14.9965 40.8385 15.0335 40.804 15.1072L40.0719 16.4502H40.0512L39.2301 15.1072ZM43.7303 14.9492C43.6526 14.9492 43.5903 14.9965 43.5421 15.0914L42.7893 16.5766H42.7719L42.0191 15.0914C41.9714 14.9965 41.9086 14.9492 41.8308 14.9492C41.7809 14.9492 41.7388 14.9628 41.7043 14.9901C41.6701 15.0175 41.6494 15.0513 41.6428 15.0914L41.2903 16.9684L41.266 17.1138C41.266 17.1475 41.2787 17.1771 41.3038 17.2023C41.3291 17.2277 41.3619 17.2405 41.4033 17.2405C41.4375 17.2405 41.467 17.2297 41.4923 17.2087C41.5174 17.1877 41.5334 17.1614 41.54 17.1298L41.8653 15.4072H41.8824L42.6007 16.8137C42.6443 16.898 42.7035 16.94 42.7788 16.94C42.8565 16.94 42.9169 16.898 42.9604 16.8137L43.6793 15.4072H43.6961L44.0211 17.1298C44.0278 17.1614 44.044 17.1877 44.0688 17.2087C44.0942 17.2297 44.124 17.2405 44.1581 17.2405C44.1995 17.2405 44.2326 17.2277 44.2571 17.2023C44.2825 17.1771 44.2949 17.1475 44.2949 17.1138C44.2949 17.0759 44.2869 17.0275 44.2709 16.9684L43.9186 15.0914C43.912 15.0513 43.8913 15.0175 43.8569 14.9901C43.8227 14.9628 43.7808 14.9492 43.7303 14.9492ZM47.3921 15.1228C47.3921 15.0387 47.3466 14.9965 47.2554 14.9965C47.1641 14.9965 47.1184 15.0387 47.1184 15.1228V17.1138C47.1184 17.1981 47.1641 17.2405 47.2554 17.2405C47.3466 17.2405 47.3921 17.1981 47.3921 17.1138V15.1228ZM45.6811 17.2245C45.9868 17.2245 46.223 17.1575 46.3895 17.0236C46.556 16.89 46.6393 16.7198 46.6393 16.5133C46.6393 16.3071 46.556 16.1368 46.3895 16.0031C46.223 15.8693 45.9868 15.8024 45.6811 15.8024H45.065V15.1136C45.065 15.0355 45.0193 14.9965 44.928 14.9965C44.8368 14.9965 44.791 15.0355 44.791 15.1136V17.0982C44.791 17.1823 44.8368 17.2245 44.928 17.2245H45.6811ZM45.065 16.9875V16.0393H45.6811C45.9025 16.0393 46.0687 16.0832 46.1809 16.1703C46.2925 16.258 46.3485 16.3722 46.3485 16.5133C46.3485 16.6547 46.2925 16.7687 46.1809 16.8564C46.0687 16.9437 45.9025 16.9875 45.6811 16.9875H45.065ZM48.3505 15.2493H49.0691C49.2403 15.2493 49.3712 15.282 49.4628 15.3473C49.5537 15.4126 49.5998 15.496 49.5998 15.5968C49.5998 15.6982 49.5537 15.7812 49.4628 15.8464C49.3712 15.9121 49.2403 15.9445 49.0691 15.9445H48.3505V15.2493ZM48.3505 16.1658H49.1546C49.344 16.1658 49.4912 16.2053 49.5959 16.2844C49.7012 16.3633 49.7533 16.4609 49.7533 16.5766C49.7533 16.6924 49.7012 16.7899 49.5959 16.869C49.4912 16.9481 49.344 16.9875 49.1546 16.9875H48.3505V16.1658ZM48.2135 15.0123C48.122 15.0123 48.0762 15.0545 48.0762 15.1388V17.0982C48.0762 17.1823 48.122 17.2245 48.2135 17.2245H49.1546C49.433 17.2245 49.651 17.1655 49.8087 17.0475C49.9658 16.9294 50.0447 16.7829 50.0447 16.6082C50.0447 16.5133 50.0245 16.4292 49.9843 16.3554C49.9446 16.2817 49.9008 16.2263 49.8531 16.1893C49.8048 16.1526 49.7494 16.1212 49.6869 16.0948C49.624 16.0684 49.5805 16.053 49.5565 16.049C49.5328 16.0446 49.5127 16.0416 49.4969 16.0393V16.0236L49.538 16.014C49.565 16.0076 49.5981 15.9945 49.6356 15.9745C49.6734 15.9545 49.7111 15.9292 49.75 15.8989C49.7889 15.8683 49.8222 15.8234 49.8492 15.7643C49.8768 15.7056 49.8906 15.6392 49.8906 15.5651C49.8906 15.4072 49.8192 15.2758 49.6767 15.1703C49.5339 15.0651 49.3316 15.0123 49.0691 15.0123H48.2135ZM51.3788 14.9492C51.2832 14.9492 51.2151 14.9913 51.1735 15.0754L50.2671 17.0033L50.2602 17.0223C50.2533 17.0327 50.2473 17.0468 50.2412 17.065C50.2354 17.0828 50.2327 17.0992 50.2327 17.1138C50.2327 17.1517 50.244 17.1823 50.2671 17.2053C50.2897 17.2287 50.3184 17.2405 50.3526 17.2405C50.4209 17.2405 50.4722 17.2035 50.5067 17.1298L50.7456 16.6082H52.0123L52.2515 17.1298L52.2659 17.158C52.2774 17.1771 52.2959 17.1956 52.3218 17.2134C52.3486 17.2312 52.3764 17.2405 52.4062 17.2405C52.4403 17.2405 52.4685 17.2287 52.4911 17.2053C52.5142 17.1823 52.5258 17.1517 52.5258 17.1138C52.5258 17.0823 52.5142 17.0455 52.4911 17.0033L51.5842 15.0754C51.5437 14.9913 51.475 14.9492 51.3788 14.9492ZM51.8926 16.3712H50.8656L51.3686 15.2966H51.3896L51.8926 16.3712ZM54.562 15.2493C54.6056 15.2493 54.6392 15.2388 54.6629 15.2177C54.6872 15.1967 54.699 15.1681 54.699 15.1326C54.699 15.0966 54.6872 15.0677 54.6629 15.0456C54.6392 15.0234 54.6056 15.0123 54.562 15.0123H53.0391C52.9475 15.0123 52.9018 15.0545 52.9018 15.1388V17.0982C52.9018 17.1823 52.9475 17.2245 53.0391 17.2245H54.5965C54.6398 17.2245 54.6734 17.2139 54.6971 17.1929C54.7211 17.1717 54.7329 17.1432 54.7329 17.1076C54.7329 17.0717 54.7211 17.0428 54.6971 17.0206C54.6734 16.9984 54.6398 16.9875 54.5965 16.9875H53.1761V16.2288H54.237C54.28 16.2288 54.3137 16.2179 54.3376 16.1957C54.3616 16.1737 54.3738 16.1446 54.3738 16.1091C54.3738 16.073 54.3616 16.0446 54.3376 16.0236C54.3137 16.0024 54.28 15.992 54.237 15.992H53.1761V15.2493H54.562ZM57.4194 14.9492C57.3422 14.9492 57.2794 14.9965 57.2312 15.0914L56.4786 16.5766H56.4615L55.7082 15.0914C55.6605 14.9965 55.5976 14.9492 55.5205 14.9492C55.47 14.9492 55.4278 14.9628 55.3937 14.9901C55.3595 15.0175 55.3391 15.0513 55.3322 15.0914L54.9799 16.9684L54.9557 17.1138C54.9557 17.1475 54.9681 17.1771 54.9931 17.2023C55.0182 17.2277 55.0513 17.2405 55.0927 17.2405C55.1268 17.2405 55.1561 17.2297 55.1814 17.2087C55.2065 17.1877 55.2225 17.1614 55.2294 17.1298L55.5546 15.4072H55.5717L56.2904 16.8137C56.3339 16.898 56.3929 16.94 56.4682 16.94C56.5462 16.94 56.6063 16.898 56.6498 16.8137L57.3682 15.4072H57.3852L57.7108 17.1298C57.7177 17.1614 57.7334 17.1877 57.7582 17.2087C57.7838 17.2297 57.8131 17.2405 57.8472 17.2405C57.8889 17.2405 57.9214 17.2277 57.947 17.2023C57.9716 17.1771 57.9845 17.1475 57.9845 17.1138C57.9845 17.0759 57.9762 17.0275 57.9605 16.9684L57.608 15.0914C57.6011 15.0513 57.5804 15.0175 57.5462 14.9901C57.5118 14.9628 57.4699 14.9492 57.4194 14.9492ZM58.3092 17.0982C58.3092 17.14 58.326 17.1771 58.3594 17.2087C58.3922 17.2405 58.4352 17.2561 58.4873 17.2561C58.5446 17.2561 58.589 17.2418 58.621 17.2134C58.653 17.185 58.669 17.1464 58.669 17.0982C58.669 17.0495 58.653 17.0113 58.621 16.9827C58.589 16.9543 58.5446 16.94 58.4873 16.94C58.4327 16.94 58.3894 16.9543 58.3572 16.9827C58.3255 17.0113 58.3092 17.0495 58.3092 17.0982ZM61.7317 16.387C61.7317 16.6505 61.8265 16.8663 62.0162 17.0349C62.2053 17.2035 62.4531 17.2878 62.7585 17.2878C63.0146 17.2878 63.2351 17.2277 63.4209 17.1076C63.607 16.9875 63.6999 16.8789 63.6999 16.782C63.6999 16.7442 63.688 16.7137 63.6657 16.6905C63.6425 16.6675 63.6144 16.6557 63.5802 16.6557C63.5345 16.6557 63.5003 16.6715 63.4777 16.7031C63.3018 16.9348 63.0623 17.0509 62.7585 17.0509C62.5374 17.0509 62.3566 16.988 62.216 16.8626C62.076 16.7371 62.006 16.5786 62.006 16.387V15.8496C62.006 15.6582 62.076 15.4995 62.216 15.3742C62.3566 15.2489 62.5374 15.1859 62.7585 15.1859C62.8751 15.1859 62.9801 15.2024 63.0738 15.2352C63.1673 15.2679 63.2362 15.3015 63.2803 15.3362C63.3252 15.3712 63.3735 15.4156 63.4261 15.4706C63.4537 15.5022 63.4879 15.5179 63.5287 15.5179C63.5631 15.5179 63.5918 15.5063 63.6144 15.4832C63.637 15.46 63.6483 15.4295 63.6483 15.3915C63.6483 15.3118 63.5612 15.2177 63.3867 15.1106C63.2122 15.0029 63.003 14.9492 62.7585 14.9492C62.4531 14.9492 62.2053 15.0335 62.0162 15.2019C61.8265 15.3703 61.7317 15.5865 61.7317 15.8496V16.387ZM65.0348 17.0509C64.8132 17.0509 64.6327 16.988 64.4921 16.8626C64.3518 16.7371 64.2818 16.5786 64.2818 16.387V15.8496C64.2818 15.6582 64.3518 15.4995 64.4921 15.3742C64.6327 15.2489 64.8132 15.1859 65.0348 15.1859C65.2559 15.1859 65.437 15.2489 65.577 15.3742C65.7176 15.4995 65.7876 15.6582 65.7876 15.8496V16.387C65.7876 16.5786 65.7176 16.7371 65.577 16.8626C65.437 16.988 65.2559 17.0509 65.0348 17.0509ZM65.0348 17.2878C65.34 17.2878 65.5881 17.2035 65.7772 17.0349C65.9665 16.8663 66.0614 16.6505 66.0614 16.387V15.8496C66.0614 15.5865 65.9665 15.3703 65.7772 15.2019C65.5881 15.0335 65.34 14.9492 65.0348 14.9492C64.7286 14.9492 64.4813 15.0335 64.2917 15.2019C64.1026 15.3703 64.0075 15.5865 64.0075 15.8496V16.387C64.0075 16.6505 64.1026 16.8663 64.2917 17.0349C64.4813 17.2035 64.7286 17.2878 65.0348 17.2878ZM67.0022 15.9445C66.968 15.9445 66.9399 15.9551 66.917 15.9762C66.8944 15.9972 66.8828 16.0236 66.8828 16.0552C66.8828 16.0869 66.8944 16.1133 66.917 16.1341C66.9399 16.1552 66.968 16.1658 67.0022 16.1658H67.2252C67.4443 16.1658 67.613 16.208 67.7315 16.2921C67.8503 16.3764 67.9096 16.4817 67.9096 16.6082C67.9096 16.7346 67.8503 16.8399 67.7315 16.9242C67.613 17.0085 67.4443 17.0509 67.2252 17.0509C66.9217 17.0509 66.6821 16.9348 66.5063 16.7031C66.4834 16.6715 66.4492 16.6557 66.4037 16.6557C66.369 16.6557 66.3409 16.6675 66.318 16.6905C66.2951 16.7137 66.2835 16.7442 66.2835 16.782C66.2835 16.8789 66.3767 16.9875 66.5625 17.1076C66.7486 17.2277 66.9693 17.2878 67.2252 17.2878C67.5353 17.2878 67.7756 17.2228 67.9449 17.0935C68.115 16.9637 68.2001 16.8019 68.2001 16.6082C68.2001 16.5199 68.1811 16.4403 68.1422 16.3697C68.1034 16.2992 68.0598 16.2453 68.0119 16.2085C67.9642 16.1716 67.909 16.14 67.8465 16.1138C67.7831 16.0872 67.7395 16.0716 67.7144 16.0663C67.6894 16.0611 67.6698 16.0574 67.6563 16.0552V16.0393L67.7075 16.03C67.7395 16.0214 67.7784 16.0068 67.8241 15.9856C67.8694 15.9646 67.9157 15.9376 67.9625 15.9051C68.0091 15.8725 68.0494 15.8259 68.0819 15.766C68.115 15.7061 68.132 15.6392 68.132 15.5651C68.132 15.3967 68.0505 15.252 67.8873 15.1309C67.7244 15.0096 67.5036 14.9492 67.2252 14.9492C66.9809 14.9492 66.7714 15.0029 66.5969 15.1106C66.4225 15.2177 66.3348 15.3118 66.3348 15.3915C66.3348 15.4295 66.3464 15.46 66.369 15.4832C66.3921 15.5063 66.4208 15.5179 66.455 15.5179C66.4958 15.5179 66.53 15.5022 66.5573 15.4706C66.6099 15.4156 66.6584 15.3712 66.7028 15.3362C66.7475 15.3015 66.8164 15.2679 66.9101 15.2352C67.0035 15.2024 67.1086 15.1859 67.2252 15.1859C67.4189 15.1859 67.5703 15.2236 67.6786 15.2983C67.7869 15.373 67.8412 15.4622 67.8412 15.5651C67.8412 15.6686 67.7869 15.7576 67.6786 15.8323C67.5703 15.9074 67.4189 15.9445 67.2252 15.9445H67.0022ZM70.6474 17.2245V17.6037C70.6474 17.6878 70.6928 17.7301 70.7841 17.7301C70.8756 17.7301 70.9211 17.6878 70.9211 17.6037V17.1138C70.9211 17.0295 70.8756 16.9875 70.7841 16.9875H70.5958V15.1388C70.5958 15.0545 70.5503 15.0123 70.4591 15.0123H69.0389C68.9474 15.0123 68.9017 15.0545 68.9017 15.1388V16.2288C68.9017 16.332 68.8882 16.4292 68.8606 16.5199C68.8336 16.6104 68.8033 16.6821 68.7699 16.7346C68.7368 16.7872 68.6985 16.8359 68.6555 16.8801C68.6119 16.9242 68.5816 16.9516 68.5648 16.9622C68.5477 16.9726 68.5348 16.9811 68.5257 16.9875H68.4912C68.3997 16.9875 68.3539 17.0295 68.3539 17.1138V17.6037C68.3539 17.6878 68.3997 17.7301 68.4912 17.7301C68.5825 17.7301 68.6279 17.6878 68.6279 17.6037V17.2245H70.6474ZM68.8336 16.9716L68.8675 16.9494C68.8928 16.9348 68.9221 16.908 68.9551 16.869C68.9879 16.83 69.021 16.7837 69.0541 16.7299C69.0872 16.6762 69.1158 16.6051 69.1395 16.5167C69.1635 16.4281 69.1754 16.332 69.1754 16.2288V15.2493H70.3221V16.9875H68.8336V16.9716ZM72.2216 14.9492C72.1257 14.9492 72.0576 14.9913 72.016 15.0754L71.1091 17.0033L71.1025 17.0223C71.0956 17.0327 71.089 17.0468 71.0837 17.065C71.0776 17.0828 71.0752 17.0992 71.0752 17.1138C71.0752 17.1517 71.0859 17.1823 71.1091 17.2053C71.1317 17.2287 71.1603 17.2405 71.1948 17.2405C71.2629 17.2405 71.3144 17.2035 71.3489 17.1298L71.5882 16.6082H72.8545L73.094 17.1298L73.1075 17.158C73.1191 17.1771 73.1381 17.1956 73.1641 17.2134C73.1905 17.2312 73.2184 17.2405 73.2484 17.2405C73.2823 17.2405 73.311 17.2287 73.3336 17.2053C73.3567 17.1823 73.3678 17.1517 73.3678 17.1138C73.3678 17.0823 73.3567 17.0455 73.3336 17.0033L72.4267 15.0754C72.3856 14.9913 72.3175 14.9492 72.2216 14.9492ZM72.7346 16.3712H71.7081L72.2111 15.2966H72.2321L72.7346 16.3712ZM75.4043 15.2493C75.4475 15.2493 75.4814 15.2388 75.5051 15.2177C75.5291 15.1967 75.541 15.1681 75.541 15.1326C75.541 15.0966 75.5291 15.0677 75.5051 15.0456C75.4814 15.0234 75.4475 15.0123 75.4043 15.0123H73.8816C73.7901 15.0123 73.7443 15.0545 73.7443 15.1388V17.0982C73.7443 17.1823 73.7901 17.2245 73.8816 17.2245H75.4387C75.4823 17.2245 75.5154 17.2139 75.5393 17.1929C75.5633 17.1717 75.5752 17.1432 75.5752 17.1076C75.5752 17.0717 75.5633 17.0428 75.5393 17.0206C75.5154 16.9984 75.4823 16.9875 75.4387 16.9875H74.0186V16.2288H75.079C75.1225 16.2288 75.1562 16.2179 75.1802 16.1957C75.2041 16.1737 75.2163 16.1446 75.2163 16.1091C75.2163 16.073 75.2041 16.0446 75.1802 16.0236C75.1562 16.0024 75.1225 15.992 75.079 15.992H74.0186V15.2493H75.4043ZM78.2619 14.9492C78.1842 14.9492 78.1219 14.9965 78.0737 15.0914L77.3211 16.5766H77.3035L76.5507 15.0914C76.503 14.9965 76.4402 14.9492 76.363 14.9492C76.3125 14.9492 76.2701 14.9628 76.2362 14.9901C76.202 15.0175 76.181 15.0513 76.1747 15.0914L75.8222 16.9684L75.7982 17.1138C75.7982 17.1475 75.8103 17.1771 75.8357 17.2023C75.861 17.2277 75.8938 17.2405 75.9346 17.2405C75.9693 17.2405 75.9986 17.2297 76.0239 17.2087C76.049 17.1877 76.065 17.1614 76.0716 17.1298L76.3966 15.4072H76.4143L77.1329 16.8137C77.1759 16.898 77.2351 16.94 77.3107 16.94C77.3881 16.94 77.4488 16.898 77.4923 16.8137L78.2104 15.4072H78.2278L78.5527 17.1298C78.5596 17.1614 78.5759 17.1877 78.6004 17.2087C78.6263 17.2297 78.6556 17.2405 78.6897 17.2405C78.7308 17.2405 78.7636 17.2277 78.789 17.2023C78.8141 17.1771 78.8265 17.1475 78.8265 17.1138C78.8265 17.0759 78.8185 17.0275 78.8025 16.9684L78.4502 15.0914C78.4433 15.0513 78.4229 15.0175 78.3885 14.9901C78.3543 14.9628 78.3124 14.9492 78.2619 14.9492ZM79.1517 17.0982C79.1517 17.14 79.1686 17.1771 79.2014 17.2087C79.2347 17.2405 79.2774 17.2561 79.3298 17.2561C79.3866 17.2561 79.431 17.2418 79.4632 17.2134C79.4949 17.185 79.5115 17.1464 79.5115 17.0982C79.5115 17.0495 79.4949 17.0113 79.4632 16.9827C79.431 16.9543 79.3866 16.94 79.3298 16.94C79.2752 16.94 79.2317 16.9543 79.1997 16.9827C79.1677 17.0113 79.1517 17.0495 79.1517 17.0982ZM82.8308 15.0123C82.7396 15.0123 82.6941 15.0545 82.6941 15.1388V17.1138C82.6941 17.1981 82.7396 17.2405 82.8308 17.2405C82.9224 17.2405 82.9679 17.1981 82.9679 17.1138V15.2493H84.3538V17.1138C84.3538 17.1981 84.3996 17.2405 84.4911 17.2405C84.5821 17.2405 84.6275 17.1981 84.6275 17.1138V15.1388C84.6275 15.0545 84.5821 15.0123 84.4911 15.0123H82.8308ZM85.449 15.0123C85.3575 15.0123 85.312 15.0545 85.312 15.1388V17.1232C85.312 17.2013 85.3575 17.2405 85.449 17.2405C85.5405 17.2405 85.5863 17.2013 85.5863 17.1232V16.4661H86.2192C86.5271 16.4661 86.7666 16.3981 86.9378 16.2622C87.1087 16.1264 87.1944 15.9519 87.1944 15.7389C87.1944 15.5263 87.1087 15.352 86.9378 15.2162C86.7666 15.0803 86.5271 15.0123 86.2192 15.0123H85.449ZM86.2192 15.2493C86.4427 15.2493 86.6131 15.2943 86.7291 15.3835C86.8452 15.4733 86.9033 15.5916 86.9033 15.7389C86.9033 15.8867 86.8452 16.0051 86.7291 16.0948C86.6131 16.1843 86.4427 16.2288 86.2192 16.2288H85.5863V15.2493H86.2192ZM88.5465 17.0509C88.3251 17.0509 88.144 16.988 88.004 16.8626C87.8634 16.7371 87.7937 16.5786 87.7937 16.387V15.8496C87.7937 15.6582 87.8634 15.4995 88.004 15.3742C88.144 15.2489 88.3251 15.1859 88.5465 15.1859C88.7675 15.1859 88.9486 15.2489 89.0889 15.3742C89.2295 15.4995 89.2993 15.6582 89.2993 15.8496V16.387C89.2993 16.5786 89.2295 16.7371 89.0889 16.8626C88.9486 16.988 88.7675 17.0509 88.5465 17.0509ZM88.5465 17.2878C88.8519 17.2878 89.0994 17.2035 89.2893 17.0349C89.4784 16.8663 89.573 16.6505 89.573 16.387V15.8496C89.573 15.5865 89.4784 15.3703 89.2893 15.2019C89.0994 15.0335 88.8519 14.9492 88.5465 14.9492C88.2405 14.9492 87.9932 15.0335 87.8036 15.2019C87.6139 15.3703 87.5194 15.5865 87.5194 15.8496V16.387C87.5194 16.6505 87.6139 16.8663 87.8036 17.0349C87.9932 17.2035 88.2405 17.2878 88.5465 17.2878ZM92.0199 17.2245V17.6037C92.0199 17.6878 92.0657 17.7301 92.157 17.7301C92.2485 17.7301 92.2937 17.6878 92.2937 17.6037V17.1138C92.2937 17.0295 92.2485 16.9875 92.157 16.9875H91.9687V15.1388C91.9687 15.0545 91.9229 15.0123 91.8317 15.0123H90.4115C90.3203 15.0123 90.2745 15.0545 90.2745 15.1388V16.2288C90.2745 16.332 90.261 16.4292 90.2335 16.5199C90.2062 16.6104 90.1758 16.6821 90.1428 16.7346C90.1097 16.7872 90.0714 16.8359 90.0281 16.8801C89.9848 16.9242 89.9548 16.9516 89.9377 16.9622C89.92 16.9726 89.9074 16.9811 89.8985 16.9875H89.8638C89.7723 16.9875 89.7268 17.0295 89.7268 17.1138V17.6037C89.7268 17.6878 89.7723 17.7301 89.8638 17.7301C89.9551 17.7301 90.0008 17.6878 90.0008 17.6037V17.2245H92.0199ZM90.2062 16.9716L90.2403 16.9494C90.2654 16.9348 90.2947 16.908 90.328 16.869C90.3608 16.83 90.3936 16.7837 90.427 16.7299C90.4598 16.6762 90.4884 16.6051 90.513 16.5167C90.5361 16.4281 90.5483 16.332 90.5483 16.2288V15.2493H91.695V16.9875H90.2062V16.9716ZM93.0297 15.2493H93.7483C93.9189 15.2493 94.0507 15.282 94.1419 15.3473C94.2329 15.4126 94.2786 15.496 94.2786 15.5968C94.2786 15.6982 94.2329 15.7812 94.1419 15.8464C94.0507 15.9121 93.9189 15.9445 93.7483 15.9445H93.0297V15.2493ZM93.0297 16.1658H93.8335C94.0231 16.1658 94.17 16.2053 94.2753 16.2844C94.3801 16.3633 94.4327 16.4609 94.4327 16.5766C94.4327 16.6924 94.3801 16.7899 94.2753 16.869C94.17 16.9481 94.0231 16.9875 93.8335 16.9875H93.0297V16.1658ZM92.8927 15.0123C92.8014 15.0123 92.7554 15.0545 92.7554 15.1388V17.0982C92.7554 17.1823 92.8014 17.2245 92.8927 17.2245H93.8335C94.1121 17.2245 94.3302 17.1655 94.4873 17.0475C94.6447 16.9294 94.7235 16.7829 94.7235 16.6082C94.7235 16.5133 94.7034 16.4292 94.6637 16.3554C94.6237 16.2817 94.5796 16.2263 94.5317 16.1893C94.484 16.1526 94.4289 16.1212 94.3663 16.0948C94.3029 16.0684 94.2599 16.053 94.2359 16.049C94.2119 16.0446 94.1918 16.0416 94.1761 16.0393V16.0236L94.2169 16.014C94.2445 16.0076 94.277 15.9945 94.3145 15.9745C94.352 15.9545 94.3905 15.9292 94.4294 15.8989C94.4683 15.8683 94.5011 15.8234 94.5284 15.7643C94.5557 15.7056 94.5697 15.6392 94.5697 15.5651C94.5697 15.4072 94.4986 15.2758 94.3553 15.1703C94.213 15.0651 94.0107 15.0123 93.7483 15.0123H92.8927ZM96.9138 15.4546V17.1138C96.9138 17.1981 96.9593 17.2405 97.0509 17.2405C97.1421 17.2405 97.1879 17.1981 97.1879 17.1138V15.1228C97.1879 15.0387 97.1421 14.9965 97.0509 14.9965C96.9822 14.9965 96.9138 15.0387 96.8455 15.1228L95.5108 16.782H95.4937V15.1228C95.4937 15.0387 95.4479 14.9965 95.3567 14.9965C95.2652 14.9965 95.2197 15.0387 95.2197 15.1228V17.1138C95.2197 17.1981 95.2652 17.2405 95.3567 17.2405C95.4251 17.2405 95.4937 17.1981 95.5621 17.1138L96.8965 15.4546H96.9138ZM99.3947 15.2493C99.4383 15.2493 99.4722 15.2382 99.4962 15.2162C99.5199 15.1938 99.5317 15.1651 99.5317 15.1292C99.5317 15.0956 99.5196 15.0677 99.4945 15.0456C99.4691 15.0234 99.4358 15.0123 99.3947 15.0123H98.009C97.9175 15.0123 97.8723 15.0545 97.8723 15.1388V17.1138C97.8723 17.1981 97.9175 17.2405 98.009 17.2405C98.1003 17.2405 98.146 17.1981 98.146 17.1138V15.2493H99.3947ZM100.439 14.9492C100.343 14.9492 100.275 14.9913 100.234 15.0754L99.3263 17.0033L99.3195 17.0223C99.3134 17.0327 99.3068 17.0468 99.301 17.065C99.2955 17.0828 99.2924 17.0992 99.2924 17.1138C99.2924 17.1517 99.304 17.1823 99.3263 17.2053C99.3498 17.2287 99.3776 17.2405 99.4124 17.2405C99.4807 17.2405 99.5317 17.2035 99.5662 17.1298L99.806 16.6082H101.072L101.311 17.1298L101.326 17.158C101.337 17.1771 101.356 17.1956 101.381 17.2134C101.408 17.2312 101.436 17.2405 101.465 17.2405C101.5 17.2405 101.528 17.2287 101.551 17.2053C101.574 17.1823 101.586 17.1517 101.586 17.1138C101.586 17.0823 101.574 17.0455 101.551 17.0033L100.644 15.0754C100.603 14.9913 100.535 14.9492 100.439 14.9492ZM100.952 16.3712H99.9256L100.429 15.2966H100.449L100.952 16.3712ZM103.622 15.2493C103.665 15.2493 103.698 15.2388 103.723 15.2177C103.746 15.1967 103.759 15.1681 103.759 15.1326C103.759 15.0966 103.746 15.0677 103.723 15.0456C103.698 15.0234 103.665 15.0123 103.622 15.0123H102.099C102.008 15.0123 101.962 15.0545 101.962 15.1388V17.0982C101.962 17.1823 102.008 17.2245 102.099 17.2245H103.656C103.699 17.2245 103.733 17.2139 103.757 17.1929C103.781 17.1717 103.793 17.1432 103.793 17.1076C103.793 17.0717 103.781 17.0428 103.757 17.0206C103.733 16.9984 103.699 16.9875 103.656 16.9875H102.236V16.2288H103.297C103.34 16.2288 103.374 16.2179 103.397 16.1957C103.421 16.1737 103.433 16.1446 103.433 16.1091C103.433 16.073 103.421 16.0446 103.397 16.0236C103.374 16.0024 103.34 15.992 103.297 15.992H102.236V15.2493H103.622ZM106.479 14.9492C106.402 14.9492 106.339 14.9965 106.291 15.0914L105.538 16.5766H105.521L104.768 15.0914C104.72 14.9965 104.657 14.9492 104.58 14.9492C104.53 14.9492 104.488 14.9628 104.453 14.9901C104.419 15.0175 104.399 15.0513 104.392 15.0914L104.039 16.9684L104.015 17.1138C104.015 17.1475 104.028 17.1771 104.053 17.2023C104.078 17.2277 104.112 17.2405 104.152 17.2405C104.187 17.2405 104.216 17.2297 104.241 17.2087C104.266 17.1877 104.282 17.1614 104.289 17.1298L104.614 15.4072H104.632L105.35 16.8137C105.394 16.898 105.452 16.94 105.528 16.94C105.606 16.94 105.666 16.898 105.71 16.8137L106.428 15.4072H106.445L106.77 17.1298C106.777 17.1614 106.793 17.1877 106.818 17.2087C106.844 17.2297 106.873 17.2405 106.907 17.2405C106.948 17.2405 106.981 17.2277 107.007 17.2023C107.032 17.1771 107.044 17.1475 107.044 17.1138C107.044 17.0759 107.036 17.0275 107.02 16.9684L106.668 15.0914C106.661 15.0513 106.64 15.0175 106.606 14.9901C106.572 14.9628 106.53 14.9492 106.479 14.9492ZM107.369 17.0982C107.369 17.14 107.386 17.1771 107.419 17.2087C107.452 17.2405 107.495 17.2561 107.547 17.2561C107.604 17.2561 107.649 17.2418 107.681 17.2134C107.712 17.185 107.728 17.1464 107.728 17.0982C107.728 17.0495 107.712 17.0113 107.681 16.9827C107.649 16.9543 107.604 16.94 107.547 16.94C107.493 16.94 107.449 16.9543 107.417 16.9827C107.385 17.0113 107.369 17.0495 107.369 17.0982Z" fill="#434242"/>
</g>
<defs>
<clipPath id="clip0_127_30">
<rect width="108" height="23.2374" fill="white"/>
</clipPath>
</defs>
</svg>
