<svg width="392" height="118" viewBox="0 0 392 118" fill="none" xmlns="http://www.w3.org/2000/svg">
<path d="M202.287 97.3207C197.934 97.0269 194.734 95.8351 192.688 93.7454C190.642 91.623 189.586 88.3252 189.521 83.8519C189.456 79.0522 189.407 74.4973 189.375 70.1872C189.342 65.8446 189.326 61.5999 189.326 57.4531C189.326 53.3064 189.342 49.078 189.375 44.768C189.407 40.4579 189.456 35.903 189.521 31.1033C189.586 26.7279 190.642 23.4791 192.688 21.3568C194.767 19.2344 197.966 18.0263 202.287 17.7324V24.4913C200.5 24.7525 199.217 25.3566 198.437 26.3035C197.69 27.2504 197.284 28.7687 197.219 30.8584C197.122 35.9847 197.041 40.7028 196.976 45.0128C196.911 49.2902 196.878 53.4533 196.878 57.5021C196.878 61.5182 196.911 65.6813 196.976 69.9913C197.041 74.2687 197.122 78.9869 197.219 84.1458C197.284 86.2029 197.69 87.7212 198.437 88.7007C199.217 89.6476 200.5 90.2517 202.287 90.5129V97.3207ZM207.5 97.2718V90.4639C209.287 90.2027 210.553 89.5823 211.3 88.6028C212.08 87.6232 212.519 86.1376 212.616 84.1458C212.681 82.6438 212.713 81.1745 212.713 79.7378C212.713 78.2685 212.697 76.6359 212.665 74.8401C212.632 73.0116 212.583 70.8566 212.519 68.3751H220.266C220.395 71.5096 220.46 74.285 220.46 76.7012C220.493 79.0848 220.46 81.4684 220.363 83.8519C220.168 88.2599 219.064 91.5251 217.05 93.6474C215.036 95.7371 211.853 96.9452 207.5 97.2718ZM212.177 45.5026C212.242 43.7394 212.275 42.0742 212.275 40.5069C212.307 38.9396 212.324 37.3724 212.324 35.8051C212.324 34.2378 212.291 32.5889 212.226 30.8584C212.161 28.8993 211.755 27.4463 211.008 26.4994C210.293 25.5198 209.124 24.8668 207.5 24.5403V17.8304C211.625 18.1569 214.679 19.3977 216.66 21.5527C218.674 23.7077 219.778 26.8912 219.973 31.1033C220.038 32.8011 220.071 34.4337 220.071 36.001C220.103 37.5356 220.103 39.0702 220.071 40.6049C220.038 42.1395 219.973 43.7721 219.876 45.5026H212.177Z" fill="#7D7D7B"/>
<path d="M226.889 96.635V59.7061H236.731L243.747 35.0704L249.155 18.2712H257.487L234.733 82.8724V96.635H226.889ZM250.763 96.635L243.406 71.4117L247.889 59.7551L258.705 96.635H250.763ZM226.889 55.0042V18.2712H234.977V35.0704L234.197 55.0042H226.889Z" fill="#7D7D7B"/>
<path d="M257.933 96.635L266.314 18.2712H282.392L283.123 25.2749H272.307L270.504 50.7922L268.896 67.4935H268.9L268.165 74.4973L265.875 96.635H257.933ZM282.685 96.635L278.202 50.6452L276.594 29.2911H283.416L290.578 96.635H282.685Z" fill="#7D7D7B"/>
<path d="M291.91 96.635L300.291 18.2712H316.369L317.1 25.2749H306.284L304.481 50.7922L302.873 67.4935H311.01L309.158 74.4973H302.142L299.852 96.635H291.91ZM316.662 96.635L312.179 50.6452L310.571 29.2911H317.393L324.555 96.635H316.662Z" fill="#7D7D7B"/>
<path d="M329.2 96.635V18.2712H336.947V96.635H329.2ZM342.112 96.635V89.6313H344.597C346.936 89.6313 348.592 89.2231 349.567 88.4068C350.541 87.5579 351.045 86.1539 351.077 84.1948C351.175 79.1664 351.256 74.4809 351.321 70.1383C351.386 65.7956 351.418 61.5672 351.418 57.4531C351.418 53.3064 351.386 49.0616 351.321 44.719C351.256 40.3763 351.175 35.6908 351.077 30.6625C351.045 28.7034 350.509 27.3157 349.469 26.4994C348.43 25.6831 346.627 25.2749 344.061 25.2749H342.112V18.2712H344.061C349.258 18.2712 352.994 19.2834 355.267 21.3078C357.541 23.3322 358.711 26.6626 358.776 31.2992C358.873 37.503 358.938 43.4129 358.97 49.029C359.003 54.6451 359.003 60.2612 358.97 65.8772C358.938 71.4607 358.873 77.3543 358.776 83.5581C358.711 88.2273 357.574 91.574 355.365 93.5984C353.156 95.6228 349.567 96.635 344.597 96.635H342.112Z" fill="#7D7D7B"/>
<path d="M366.127 96.635V18.2712H373.874V96.635H366.127ZM379.088 96.635V89.6313H392V96.635H379.088ZM379.088 60.7346V53.7308H391.025V60.7346H379.088ZM379.088 25.2749V18.2712H392V25.2749H379.088Z" fill="#7D7D7B"/>
<path d="M114.325 96.2539V17.89H122.112V96.2539H114.325ZM118.782 60.3535V53.3497H133.181L131.32 60.3535H118.782ZM136.56 96.2539V17.89H144.348V96.2539H136.56ZM148.975 96.2539L157.399 17.89H173.561L174.296 24.8938H163.423L161.611 50.411L159.995 67.1123H168.174L166.313 74.1161H159.26L156.958 96.2539H148.975ZM173.855 96.2539L169.349 50.2641L167.733 28.91H174.59L181.79 96.2539H173.855Z" fill="#3C3C3C"/>
<path d="M5.92627 96V17.6361H13.7137V96H5.92627ZM18.9053 96V88.8493H21.2562C23.901 88.8493 25.7295 88.4085 26.7417 87.5269C27.7539 86.6127 28.2926 85.078 28.3579 82.923C28.4559 80.1476 28.5049 77.6008 28.5049 75.2826C28.5049 72.9316 28.4559 70.3685 28.3579 67.5931C28.2926 64.7524 27.7539 62.7933 26.7417 61.7158C25.7621 60.6383 24.0316 60.0996 21.5501 60.0996H18.9053V52.9978H21.795C24.0806 52.9978 25.6805 52.4591 26.5947 51.3816C27.5416 50.2714 28.0477 48.4266 28.113 45.8471C28.1783 43.0391 28.211 40.4433 28.211 38.0597C28.211 35.6761 28.1783 33.0967 28.113 30.3213C28.0804 28.2316 27.5416 26.7623 26.4968 25.9133C25.4519 25.0644 23.6234 24.6399 21.0113 24.6399H18.9053V17.6361H21.0113C26.2356 17.6361 30.0068 18.6483 32.3251 20.6727C34.6434 22.6645 35.8188 25.9786 35.8515 30.6151C35.8841 33.8803 35.9004 36.6883 35.9004 39.0393C35.9331 41.3902 35.9004 43.6921 35.8025 45.9451C35.6719 48.7205 35.0678 50.9081 33.9903 52.5081C32.9455 54.108 31.2476 55.2181 28.8967 55.8385V57.3078C31.3455 57.9935 33.1251 59.1363 34.2352 60.7363C35.3454 62.3362 35.9658 64.5402 36.0964 67.3482C36.227 70.2216 36.2759 72.8337 36.2433 75.1846C36.2106 77.5355 36.1617 80.1313 36.0964 82.972C35.9658 87.6085 34.7413 90.939 32.4231 92.9634C30.1374 94.9878 26.4152 96 21.2562 96H18.9053ZM55.0521 96.6857C50.6768 96.3918 47.4606 95.2 45.4036 93.1103C43.3465 90.988 42.2854 87.6902 42.2201 83.2169C42.1548 78.4171 42.1058 73.8622 42.0731 69.5522C42.0405 65.2095 42.0242 60.9648 42.0242 56.8181C42.0242 52.6713 42.0405 48.4429 42.0731 44.1329C42.1058 39.8229 42.1548 35.268 42.2201 30.4682C42.2854 26.0929 43.3465 22.8441 45.4036 20.7217C47.4933 18.5994 50.7095 17.3912 55.0521 17.0974V23.8563C53.2563 24.1175 51.9666 24.7215 51.1829 25.6684C50.4319 26.6153 50.0238 28.1336 49.9585 30.2233C49.8605 35.3496 49.7789 40.0678 49.7136 44.3778C49.6483 48.6552 49.6157 52.8182 49.6157 56.867C49.6157 60.8832 49.6483 65.0463 49.7136 69.3563C49.7789 73.6336 49.8605 78.3518 49.9585 83.5108C50.0238 85.5678 50.4319 87.0861 51.1829 88.0657C51.9666 89.0126 53.2563 89.6166 55.0521 89.8778V96.6857ZM60.2927 96.6367V89.8288C62.0886 89.5676 63.362 88.9473 64.113 87.9677C64.8966 86.9882 65.3374 85.5025 65.4354 83.5108C65.5007 82.0088 65.5333 80.5395 65.5333 79.1028C65.5333 77.6335 65.517 76.0009 65.4843 74.205C65.4517 72.3766 65.4027 70.2216 65.3374 67.74H73.1248C73.2554 70.8746 73.3207 73.65 73.3207 76.0662C73.3534 78.4498 73.3207 80.8333 73.2228 83.2169C73.0269 87.6249 71.9167 90.89 69.8923 93.0124C67.8679 95.1021 64.668 96.3102 60.2927 96.6367ZM64.9946 44.8676C65.0599 43.1044 65.0925 41.4392 65.0925 39.8719C65.1252 38.3046 65.1415 36.7373 65.1415 35.17C65.1415 33.6028 65.1088 31.9539 65.0435 30.2233C64.9782 28.2642 64.5701 26.8112 63.8191 25.8643C63.1008 24.8848 61.9253 24.2318 60.2927 23.9052V17.1953C64.4395 17.5218 67.5087 18.7626 69.5005 20.9176C71.5249 23.0726 72.635 26.2562 72.8309 30.4682C72.8963 32.1661 72.9289 33.7987 72.9289 35.366C72.9616 36.9006 72.9616 38.4352 72.9289 39.9698C72.8963 41.5045 72.831 43.137 72.733 44.8676H64.9946ZM79.7827 96V17.6361H87.5701V96H79.7827ZM92.8107 96V88.9962H105.79V96H92.8107ZM92.8107 60.0996V53.0958H104.81V60.0996H92.8107ZM92.8107 24.6399V17.6361H105.79V24.6399H92.8107Z" fill="#3C3C3C"/>
</svg>
