<svg width="311" height="94" viewBox="0 0 311 94" fill="none" xmlns="http://www.w3.org/2000/svg">
<path d="M160.487 77.2109C157.034 76.9778 154.496 76.0323 152.872 74.3744C151.249 72.6906 150.411 70.0742 150.36 66.5253C150.308 62.7173 150.27 59.1036 150.244 55.6842C150.218 52.2389 150.205 48.8712 150.205 45.5814C150.205 42.2915 150.218 38.9368 150.244 35.5174C150.27 32.098 150.308 28.4843 150.36 24.6763C150.411 21.2051 151.249 18.6276 152.872 16.9438C154.522 15.26 157.06 14.3015 160.487 14.0684V19.4306C159.07 19.6379 158.052 20.1171 157.434 20.8683C156.841 21.6196 156.519 22.8241 156.467 24.482C156.39 28.5491 156.326 32.2923 156.274 35.7117C156.222 39.1052 156.197 42.408 156.197 45.6202C156.197 48.8065 156.222 52.1093 156.274 55.5287C156.326 58.9222 156.39 62.6655 156.467 66.7584C156.519 68.3904 156.841 69.595 157.434 70.3721C158.052 71.1233 159.07 71.6026 160.487 71.8098V77.2109ZM164.624 77.1721V71.771C166.041 71.5637 167.046 71.0715 167.639 70.2944C168.257 69.5173 168.605 68.3386 168.682 66.7584C168.734 65.5668 168.76 64.4011 168.76 63.2613C168.76 62.0956 168.747 60.8003 168.721 59.3756C168.695 57.9249 168.657 56.2152 168.605 54.2465H174.751C174.854 56.7333 174.906 58.9352 174.906 60.8521C174.932 62.7432 174.906 64.6342 174.829 66.5253C174.674 70.0224 173.798 72.6129 172.2 74.2967C170.602 75.9546 168.077 76.913 164.624 77.1721ZM168.334 36.1003C168.386 34.7014 168.412 33.3803 168.412 32.1368C168.438 30.8934 168.45 29.65 168.45 28.4066C168.45 27.1632 168.425 25.855 168.373 24.482C168.322 22.9277 167.999 21.775 167.407 21.0238C166.84 20.2466 165.912 19.7285 164.624 19.4695V14.1461C167.896 14.4051 170.319 15.3895 171.891 17.0992C173.489 18.8089 174.365 21.3346 174.519 24.6763C174.571 26.0234 174.597 27.3186 174.597 28.562C174.622 29.7795 174.622 30.997 174.597 32.2146C174.571 33.4321 174.519 34.7273 174.442 36.1003H168.334Z" fill="#7D7D7B"/>
<path d="M180.006 76.6669V47.3688H187.814L193.381 27.8237L197.672 14.4958H204.282L186.23 65.7481V76.6669H180.006ZM198.947 76.6669L193.11 56.6556L196.666 47.4076L205.248 76.6669H198.947ZM180.006 43.6385V14.4958H186.423V27.8237L185.804 43.6385H180.006Z" fill="#7D7D7B"/>
<path d="M204.636 76.6669L211.284 14.4958H224.041L224.62 20.0523H216.039L214.609 40.2968L213.333 53.547H213.336L212.753 59.1036L210.936 76.6669H204.636ZM224.273 76.6669L220.716 40.1802L219.441 23.2386H224.852L230.535 76.6669H224.273Z" fill="#7D7D7B"/>
<path d="M231.592 76.6669L238.24 14.4958H250.997L251.577 20.0523H242.995L241.565 40.2968L240.289 53.547H246.745L245.276 59.1036H239.709L237.893 76.6669H231.592ZM251.229 76.6669L247.672 40.1802L246.397 23.2386H251.808L257.491 76.6669H251.229Z" fill="#7D7D7B"/>
<path d="M261.176 76.6669V14.4958H267.323V76.6669H261.176ZM271.42 76.6669V71.1104H273.391C275.247 71.1104 276.561 70.7866 277.334 70.139C278.107 69.4654 278.507 68.3515 278.533 66.7973C278.61 62.8079 278.674 59.0906 278.726 55.6453C278.777 52.2 278.803 48.8453 278.803 45.5814C278.803 42.2915 278.777 38.9239 278.726 35.4785C278.674 32.0332 278.61 28.3159 278.533 24.3266C278.507 22.7723 278.082 21.6714 277.257 21.0238C276.432 20.3761 275.002 20.0523 272.966 20.0523H271.42V14.4958H272.966C277.09 14.4958 280.053 15.2988 281.857 16.9049C283.661 18.511 284.589 21.1533 284.64 24.8317C284.718 29.7536 284.769 34.4424 284.795 38.898C284.821 43.3536 284.821 47.8092 284.795 52.2648C284.769 56.6945 284.718 61.3702 284.64 66.2921C284.589 69.9965 283.687 72.6517 281.934 74.2578C280.182 75.8639 277.334 76.6669 273.391 76.6669H271.42Z" fill="#7D7D7B"/>
<path d="M290.473 76.6669V14.4958H296.619V76.6669H290.473ZM300.755 76.6669V71.1104H310.999V76.6669H300.755ZM300.755 48.1848V42.6282H310.226V48.1848H300.755ZM300.755 20.0523V14.4958H310.999V20.0523H300.755Z" fill="#7D7D7B"/>
<path d="M90.7017 76.2012V14.03H96.8799V76.2012H90.7017ZM94.2377 47.719V42.1625H105.662L104.185 47.719H94.2377ZM108.343 76.2012V14.03H114.521V76.2012H108.343ZM118.192 76.2012L124.875 14.03H137.698L138.281 19.5866H129.655L128.217 39.8311L126.935 53.0813H133.424L131.947 58.6378H126.352L124.525 76.2012H118.192ZM137.931 76.2012L134.356 39.7145L133.074 22.7728H138.514L144.226 76.2012H137.931Z" fill="#3C3C3C"/>
<path d="M4.70169 76V13.8289H10.8799V76H4.70169ZM14.9988 76V70.3269H16.8639C18.9622 70.3269 20.4129 69.9772 21.2159 69.2777C22.0189 68.5524 22.4464 67.3349 22.4982 65.6252C22.5759 63.4233 22.6148 61.4027 22.6148 59.5635C22.6148 57.6984 22.5759 55.6649 22.4982 53.463C22.4464 51.2093 22.0189 49.655 21.2159 48.8001C20.4388 47.9453 19.0658 47.5178 17.0971 47.5178H14.9988V41.8836H17.2913C19.1047 41.8836 20.374 41.4562 21.0993 40.6013C21.8506 39.7205 22.2521 38.2569 22.3039 36.2105C22.3557 33.9827 22.3816 31.9233 22.3816 30.0322C22.3816 28.1412 22.3557 26.0947 22.3039 23.8928C22.278 22.2349 21.8506 21.0692 21.0216 20.3957C20.1927 19.7222 18.742 19.3854 16.6696 19.3854H14.9988V13.8289H16.6696C20.8144 13.8289 23.8064 14.6319 25.6456 16.238C27.4848 17.8182 28.4174 20.4475 28.4433 24.126C28.4692 26.7164 28.4822 28.9442 28.4822 30.8094C28.5081 32.6745 28.4822 34.5008 28.4044 36.2882C28.3008 38.4901 27.8216 40.2257 26.9667 41.495C26.1378 42.7643 24.7907 43.6451 22.9256 44.1373V45.303C24.8685 45.847 26.2803 46.7537 27.161 48.023C28.0418 49.2923 28.534 51.0409 28.6376 53.2687C28.7412 55.5483 28.7801 57.6207 28.7542 59.4858C28.7282 61.3509 28.6894 63.4103 28.6376 65.664C28.534 69.3425 27.5625 71.9848 25.7233 73.5909C23.91 75.197 20.9569 76 16.8639 76H14.9988ZM43.6764 76.544C40.2052 76.3109 37.6536 75.3653 36.0216 73.7074C34.3896 72.0236 33.5477 69.4073 33.4959 65.8583C33.4441 62.0504 33.4052 58.4367 33.3793 55.0172C33.3534 51.5719 33.3405 48.2043 33.3405 44.9144C33.3405 41.6245 33.3534 38.2699 33.3793 34.8505C33.4052 31.4311 33.4441 27.8174 33.4959 24.0094C33.5477 20.5382 34.3896 17.9606 36.0216 16.2768C37.6795 14.593 40.2311 13.6346 43.6764 13.4014V18.7637C42.2517 18.9709 41.2284 19.4502 40.6067 20.2014C40.0109 20.9526 39.6871 22.1572 39.6353 23.8151C39.5576 27.8821 39.4928 31.6253 39.441 35.0448C39.3892 38.4383 39.3633 41.7411 39.3633 44.9533C39.3633 48.1396 39.3892 51.4424 39.441 54.8618C39.4928 58.2553 39.5576 61.9985 39.6353 66.0915C39.6871 67.7235 40.0109 68.928 40.6067 69.7052C41.2284 70.4564 42.2517 70.9356 43.6764 71.1429V76.544ZM47.8341 76.5051V71.104C49.2589 70.8968 50.2692 70.4046 50.865 69.6275C51.4867 68.8503 51.8364 67.6717 51.9141 66.0915C51.9659 64.8999 51.9918 63.7342 51.9918 62.5943C51.9918 61.4286 51.9789 60.1334 51.953 58.7087C51.9271 57.258 51.8882 55.5483 51.8364 53.5795H58.0147C58.1183 56.0664 58.1701 58.2683 58.1701 60.1852C58.196 62.0763 58.1701 63.9673 58.0924 65.8583C57.9369 69.3555 57.0562 71.9459 55.4501 73.6297C53.844 75.2876 51.3054 76.2461 47.8341 76.5051ZM51.5644 35.4333C51.6162 34.0345 51.6421 32.7133 51.6421 31.4699C51.668 30.2265 51.681 28.9831 51.681 27.7397C51.681 26.4962 51.6551 25.188 51.6033 23.8151C51.5514 22.2608 51.2276 21.1081 50.6318 20.3568C50.0619 19.5797 49.1294 19.0616 47.8341 18.8025V13.4791C51.124 13.7382 53.5591 14.7226 55.1392 16.4323C56.7453 18.142 57.6261 20.6677 57.7815 24.0094C57.8333 25.3564 57.8592 26.6517 57.8592 27.8951C57.8851 29.1126 57.8851 30.3301 57.8592 31.5476C57.8333 32.7652 57.7815 34.0604 57.7038 35.4333H51.5644ZM63.2968 76V13.8289H69.475V76H63.2968ZM73.6327 76V70.4435H83.9298V76H73.6327ZM73.6327 47.5178V41.9613H83.1527V47.5178H73.6327ZM73.6327 19.3854V13.8289H83.9298V19.3854H73.6327Z" fill="#3C3C3C"/>
</svg>
