<svg xmlns="http://www.w3.org/2000/svg">
    <symbol id="icon-arrow-right">
        <path d="M31.3619 4.85355C31.5571 4.65829 31.5571 4.34171 31.3619 4.14645L28.1799 0.964466C27.9846 0.769204 27.668 0.769204 27.4728 0.964466C27.2775 1.15973 27.2775 1.47631 27.4728 1.67157L30.3012 4.5L27.4728 7.32843C27.2775 7.52369 27.2775 7.84027 27.4728 8.03553C27.668 8.2308 27.9846 8.2308 28.1799 8.03553L31.3619 4.85355ZM-0.0078125 5H31.0083V4H-0.0078125L-0.0078125 5Z" fill="currentColor"/>
    </symbol>
    <symbol id="icon-arrow-slide-left">
        <path d="M0.260643 4.22465C0.065382 4.02939 0.065382 3.7128 0.260643 3.51754L3.44262 0.33556C3.63789 0.140298 3.95447 0.140298 4.14973 0.33556C4.34499 0.530822 4.34499 0.847404 4.14973 1.04267L1.3213 3.87109L4.14973 6.69952C4.34499 6.89478 4.34499 7.21137 4.14973 7.40663C3.95447 7.60189 3.63789 7.60189 3.44262 7.40663L0.260643 4.22465ZM17.6465 4.37109H0.614197V3.37109H17.6465V4.37109Z" fill="currentColor"/>
    </symbol>
    <symbol id="icon-arrow-slide-right">
        <path d="M17.7394 4.22465C17.9346 4.02939 17.9346 3.7128 17.7394 3.51754L14.5574 0.33556C14.3621 0.140298 14.0455 0.140298 13.8503 0.33556C13.655 0.530822 13.655 0.847404 13.8503 1.04267L16.6787 3.87109L13.8503 6.69952C13.655 6.89478 13.655 7.21137 13.8503 7.40663C14.0455 7.60189 14.3621 7.60189 14.5574 7.40663L17.7394 4.22465ZM0.353516 4.37109H17.3858V3.37109H0.353516V4.37109Z" fill="currentColor"/>
    </symbol>
    <symbol id="icon-arrow-top-right">
        <path d="M1 1H13M13 1V13M13 1L1 13" stroke="currentColor"/>
    </symbol>
    <symbol id="icon-cart">
        <path d="M23.0357 7.47338C23.0144 7.31082 22.9343 7.16168 22.8106 7.05407C22.6869 6.94646 22.5282 6.88782 22.3642 6.88921H18.6645V5.54628C18.6645 4.07532 18.0801 2.6646 17.04 1.62447C15.9999 0.584339 14.5891 0 13.1182 0C11.6472 0 10.2365 0.584339 9.19636 1.62447C8.15623 2.6646 7.57189 4.07532 7.57189 5.54628V6.88921H3.86541C3.70147 6.88782 3.54268 6.94646 3.41899 7.05407C3.2953 7.16168 3.21526 7.31082 3.19395 7.47338L0.702824 26.3683C0.690146 26.4663 0.699219 26.5658 0.729395 26.6598C0.75957 26.7538 0.810107 26.84 0.877404 26.9122C1.15942 27.2144 1.46829 27.5233 1.80402 27.8254C1.92717 27.9373 2.08749 27.9996 2.2539 28H23.9824C24.1489 27.9996 24.3092 27.9373 24.4323 27.8254C24.7613 27.5233 25.1038 27.2144 25.3589 26.9122C25.4262 26.84 25.4768 26.7538 25.5069 26.6598C25.5371 26.5658 25.5462 26.4663 25.5335 26.3683L23.0357 7.47338ZM8.93496 5.53285C8.93496 4.41805 9.37781 3.34891 10.1661 2.56063C10.9544 1.77235 12.0235 1.3295 13.1383 1.3295C14.2531 1.3295 15.3223 1.77235 16.1105 2.56063C16.8988 3.34891 17.3417 4.41805 17.3417 5.53285V6.87578H8.91481L8.93496 5.53285ZM23.7071 26.6571H2.51577L2.07261 26.2273L4.44959 8.23213H21.78L24.157 26.2273L23.7071 26.6571Z" fill="currentColor"/>
    </symbol>
    <symbol id="icon-filter">
        <path d="M0.532655 3.82627H4.32871C4.45126 4.44768 4.7865 5.00737 5.27714 5.40968C5.76777 5.81199 6.38334 6.03195 7.01862 6.03195C7.65391 6.03195 8.26947 5.81199 8.76011 5.40968C9.25074 5.00737 9.58598 4.44768 9.70853 3.82627H19.8006C19.9418 3.82627 20.0773 3.77032 20.1772 3.67074C20.2771 3.57116 20.3332 3.4361 20.3332 3.29527C20.3332 3.15444 20.2771 3.01938 20.1772 2.9198C20.0773 2.82022 19.9418 2.76427 19.8006 2.76427H9.70853C9.58598 2.14286 9.25074 1.58317 8.76011 1.18086C8.26947 0.778546 7.65391 0.558594 7.01862 0.558594C6.38334 0.558594 5.76777 0.778546 5.27714 1.18086C4.7865 1.58317 4.45126 2.14286 4.32871 2.76427H0.532655C0.391386 2.76427 0.255903 2.82022 0.156011 2.9198C0.0561189 3.01938 0 3.15444 0 3.29527C0 3.4361 0.0561189 3.57116 0.156011 3.67074C0.255903 3.77032 0.391386 3.82627 0.532655 3.82627ZM7.01685 1.6244C7.34835 1.6244 7.6724 1.7224 7.94803 1.90599C8.22366 2.08959 8.43849 2.35055 8.56535 2.65586C8.69221 2.96117 8.7254 3.29712 8.66073 3.62124C8.59606 3.94536 8.43643 4.24308 8.20202 4.47675C7.96762 4.71043 7.66897 4.86956 7.34384 4.93403C7.01871 4.9985 6.6817 4.96541 6.37544 4.83895C6.06917 4.71249 5.8074 4.49833 5.62323 4.22355C5.43906 3.94878 5.34076 3.62574 5.34076 3.29527C5.3417 2.85242 5.51858 2.42797 5.83271 2.11482C6.14683 1.80167 6.57261 1.62534 7.01685 1.6244ZM19.8006 10.4743H15.9477C15.8234 9.85487 15.4876 9.29746 14.9975 8.89696C14.5074 8.49645 13.8933 8.27758 13.2596 8.27758C12.6258 8.27758 12.0117 8.49645 11.5216 8.89696C11.0315 9.29746 10.6958 9.85487 10.5714 10.4743H0.532655C0.391386 10.4743 0.255903 10.5303 0.156011 10.6299C0.0561189 10.7294 0 10.8645 0 11.0053C0 11.1462 0.0561189 11.2812 0.156011 11.3808C0.255903 11.4804 0.391386 11.5363 0.532655 11.5363H10.5714C10.6958 12.1558 11.0315 12.7132 11.5216 13.1137C12.0117 13.5142 12.6258 13.7331 13.2596 13.7331C13.8933 13.7331 14.5074 13.5142 14.9975 13.1137C15.4876 12.7132 15.8234 12.1558 15.9477 11.5363H19.8006C19.9418 11.5363 20.0773 11.4804 20.1772 11.3808C20.2771 11.2812 20.3332 11.1462 20.3332 11.0053C20.3332 10.8645 20.2771 10.7294 20.1772 10.6299C20.0773 10.5303 19.9418 10.4743 19.8006 10.4743ZM13.2596 12.6762C12.9281 12.6762 12.604 12.5782 12.3284 12.3946C12.0528 12.211 11.8379 11.9501 11.7111 11.6447C11.5842 11.3394 11.551 11.0035 11.6157 10.6794C11.6804 10.3552 11.84 10.0575 12.0744 9.82385C12.3088 9.59018 12.6075 9.43104 12.9326 9.36657C13.2577 9.3021 13.5947 9.33519 13.901 9.46165C14.2072 9.58812 14.469 9.80227 14.6532 10.077C14.8374 10.3518 14.9357 10.6749 14.9357 11.0053C14.9347 11.4482 14.7578 11.8726 14.4437 12.1858C14.1296 12.4989 13.7038 12.6753 13.2596 12.6762ZM19.8006 18.1844H10.2589C10.1346 17.5649 9.79886 17.0075 9.30877 16.607C8.81868 16.2065 8.20453 15.9876 7.57081 15.9876C6.93709 15.9876 6.32294 16.2065 5.83285 16.607C5.34276 17.0075 5.00699 17.5649 4.88268 18.1844H0.532655C0.391386 18.1844 0.255903 18.2403 0.156011 18.3399C0.0561189 18.4395 0 18.5746 0 18.7154C0 18.8562 0.0561189 18.9913 0.156011 19.0909C0.255903 19.1904 0.391386 19.2464 0.532655 19.2464H4.88268C5.00699 19.8659 5.34276 20.4233 5.83285 20.8238C6.32294 21.2243 6.93709 21.4431 7.57081 21.4431C8.20453 21.4431 8.81868 21.2243 9.30877 20.8238C9.79886 20.4233 10.1346 19.8659 10.2589 19.2464H19.8006C19.9418 19.2464 20.0773 19.1904 20.1772 19.0909C20.2771 18.9913 20.3332 18.8562 20.3332 18.7154C20.3332 18.5746 20.2771 18.4395 20.1772 18.3399C20.0773 18.2403 19.9418 18.1844 19.8006 18.1844ZM7.57081 20.3863C7.23931 20.3863 6.91526 20.2883 6.63962 20.1047C6.36399 19.9211 6.14916 19.6601 6.02231 19.3548C5.89545 19.0495 5.86225 18.7135 5.92693 18.3894C5.9916 18.0653 6.15123 17.7676 6.38564 17.5339C6.62004 17.3002 6.91869 17.1411 7.24382 17.0766C7.56895 17.0122 7.90596 17.0452 8.21222 17.1717C8.51849 17.2982 8.78026 17.5123 8.96443 17.7871C9.1486 18.0619 9.2469 18.3849 9.2469 18.7154C9.2469 19.1585 9.07031 19.5835 8.75598 19.8969C8.44166 20.2102 8.01534 20.3863 7.57081 20.3863Z" fill="currentColor"/>
    </symbol>
    <symbol id="icon-sort">
        <path d="M5.523 18.4395V0H4.023V18.4395L1.06055 15.477L0 16.5376L4.24275 20.7803C4.53572 21.0731 5.01033 21.0731 5.3033 20.7803L9.546 16.5376L8.48545 15.477L5.523 18.4395ZM20.046 4.4625L15.8033 0.219656C15.5103 -0.073125 15.0357 -0.073125 14.7427 0.219656L10.5 4.4625L11.5605 5.52305L14.523 2.56059V21H16.023V2.56055L18.9855 5.52305L20.046 4.4625Z" fill="currentColor"/>
    </symbol>
    <symbol id="icon-delivery">
        <path d="M11.9921 23.9996C11.9116 23.9996 11.8323 23.98 11.7611 23.9426L0.269001 17.9425C0.187965 17.9003 0.120046 17.8367 0.0726217 17.7586C0.0251971 17.6805 8.04187e-05 17.5909 0 17.4995L0 6.24949C8.79107e-05 6.16436 0.0219088 6.08066 0.0633952 6.00633C0.104882 5.93199 0.16466 5.86948 0.237067 5.82472C0.309473 5.77995 0.39211 5.75441 0.477149 5.75052C0.562187 5.74663 0.646811 5.76452 0.723003 5.80248L12.2151 11.5525C12.298 11.5941 12.3677 11.6579 12.4165 11.7368C12.4652 11.8158 12.4911 11.9067 12.4911 11.9995V23.4996C12.4911 23.632 12.4385 23.759 12.345 23.8528C12.2514 23.9465 12.1245 23.9993 11.9921 23.9996ZM1 17.1965L11.4921 22.6746V12.3085L1 7.05849V17.1965Z" fill="currentColor"/>
        <path d="M12.0078 24.0001C11.9421 24.0002 11.877 23.9874 11.8163 23.9623C11.7556 23.9372 11.7004 23.9004 11.654 23.8539C11.6075 23.8075 11.5707 23.7523 11.5456 23.6916C11.5205 23.6308 11.5077 23.5658 11.5078 23.5001V12C11.5078 11.9072 11.5336 11.8163 11.5824 11.7373C11.6311 11.6584 11.7009 11.5946 11.7838 11.553L23.2759 5.80298C23.3521 5.76478 23.4368 5.74671 23.522 5.75049C23.6072 5.75427 23.69 5.77976 23.7625 5.82456C23.8351 5.86935 23.895 5.93195 23.9365 6.00641C23.9781 6.08087 23.9999 6.16472 23.9999 6.24999V17.5C23.9998 17.5914 23.9747 17.681 23.9272 17.7591C23.8798 17.8372 23.8119 17.9008 23.7309 17.943L12.2388 23.9431C12.1676 23.9805 12.0883 24.0001 12.0078 24.0001ZM12.5078 12.309V22.6751L22.9999 17.197V7.05899L12.5078 12.309Z" fill="currentColor"/>
        <path d="M0.499969 6.74953C0.387378 6.74952 0.278084 6.71151 0.189783 6.64166C0.101483 6.5718 0.0393438 6.47419 0.013427 6.36462C-0.0124898 6.25505 -0.000667422 6.13994 0.0469802 6.03793C0.0946278 5.93592 0.175311 5.85297 0.275968 5.80252L11.784 0.0524986C11.8535 0.0179694 11.93 0 12.0075 0C12.0851 0 12.1616 0.0179694 12.231 0.0524986L23.7231 5.80252C23.8418 5.8618 23.932 5.9658 23.974 6.09163C24.0161 6.21747 24.0063 6.35484 23.9471 6.47353C23.8878 6.59221 23.7838 6.68249 23.658 6.7245C23.5321 6.76651 23.3948 6.7568 23.2761 6.69753L12.008 1.0585L0.72397 6.69653C0.654467 6.73145 0.577751 6.7496 0.499969 6.74953Z" fill="currentColor"/>
        <path d="M18.0003 15.001C17.8677 15.001 17.7405 14.9483 17.6467 14.8545C17.553 14.7608 17.5003 14.6336 17.5003 14.501V9.30996L6.28425 3.69794C6.22548 3.66852 6.17308 3.62782 6.13005 3.57815C6.08701 3.52848 6.05418 3.47083 6.03342 3.40847C6.01267 3.34612 6.0044 3.28029 6.00909 3.21474C6.01378 3.14919 6.03133 3.0852 6.06074 3.02643C6.09016 2.96767 6.13086 2.91527 6.18053 2.87223C6.2302 2.8292 6.28785 2.79636 6.35021 2.77561C6.41256 2.75486 6.47839 2.74659 6.54395 2.75127C6.6095 2.75596 6.67348 2.77352 6.73225 2.80293L18.2243 8.55296C18.3072 8.59487 18.3768 8.65892 18.4256 8.73799C18.4743 8.81706 18.5001 8.90808 18.5003 9.00096V14.501C18.5003 14.6336 18.4476 14.7608 18.3539 14.8545C18.2601 14.9483 18.1329 15.001 18.0003 15.001Z" fill="currentColor"/>
    </symbol>
    <symbol id="icon-tooltip">
        <circle cx="9.5" cy="9.5" r="9" fill="#D9D9D9" stroke="#303030"/>
        <path d="M8.984 6.392V5.228H10.088V6.392H8.984ZM9.032 14V7.52H10.052V14H9.032Z" fill="#303030"/>
    </symbol>
</svg>
